G04 #@! TF.GenerationSoftware,KiCad,Pcbnew,(5.1.9-0-10_14)*
G04 #@! TF.CreationDate,2022-07-17T12:53:42+02:00*
G04 #@! TF.ProjectId,sandsim,73616e64-7369-46d2-9e6b-696361645f70,rev?*
G04 #@! TF.SameCoordinates,Original*
G04 #@! TF.FileFunction,Legend,Bot*
G04 #@! TF.FilePolarity,Positive*
%FSLAX46Y46*%
G04 Gerber Fmt 4.6, Leading zero omitted, Abs format (unit mm)*
G04 Created by KiCad (PCBNEW (5.1.9-0-10_14)) date 2022-07-17 12:53:42*
%MOMM*%
%LPD*%
G01*
G04 APERTURE LIST*
%ADD10C,0.120000*%
%ADD11C,0.100000*%
%ADD12C,0.127000*%
%ADD13C,0.066040*%
%ADD14C,0.150000*%
%ADD15C,0.101600*%
%ADD16C,0.076200*%
G04 APERTURE END LIST*
D10*
G04 #@! TO.C,C9*
X73025000Y-71882000D02*
X73025000Y-66802000D01*
X73025000Y-66802000D02*
X85725000Y-66802000D01*
X85725000Y-66802000D02*
X85725000Y-71882000D01*
X85725000Y-71882000D02*
X73025000Y-71882000D01*
X75565000Y-71882000D02*
X75565000Y-66802000D01*
X76365000Y-71462000D02*
X76365000Y-70522000D01*
X76865000Y-70982000D02*
X75855000Y-70982000D01*
X76385000Y-68502000D02*
X76385000Y-67442000D01*
G04 #@! TO.C,C8*
X72136000Y-68072000D02*
X67056000Y-68072000D01*
X67056000Y-68072000D02*
X67056000Y-55372000D01*
X67056000Y-55372000D02*
X72136000Y-55372000D01*
X72136000Y-55372000D02*
X72136000Y-68072000D01*
X72136000Y-65532000D02*
X67056000Y-65532000D01*
X71716000Y-64732000D02*
X70776000Y-64732000D01*
X71236000Y-64232000D02*
X71236000Y-65242000D01*
X68756000Y-64712000D02*
X67696000Y-64712000D01*
G04 #@! TO.C,C7*
X85725000Y-61468000D02*
X85725000Y-66548000D01*
X85725000Y-66548000D02*
X73025000Y-66548000D01*
X73025000Y-66548000D02*
X73025000Y-61468000D01*
X73025000Y-61468000D02*
X85725000Y-61468000D01*
X83185000Y-61468000D02*
X83185000Y-66548000D01*
X82385000Y-61888000D02*
X82385000Y-62828000D01*
X81885000Y-62368000D02*
X82895000Y-62368000D01*
X82365000Y-64848000D02*
X82365000Y-65908000D01*
G04 #@! TO.C,C6*
X84709000Y-90678000D02*
X84709000Y-95758000D01*
X84709000Y-95758000D02*
X72009000Y-95758000D01*
X72009000Y-95758000D02*
X72009000Y-90678000D01*
X72009000Y-90678000D02*
X84709000Y-90678000D01*
X82169000Y-90678000D02*
X82169000Y-95758000D01*
X81369000Y-91098000D02*
X81369000Y-92038000D01*
X80869000Y-91578000D02*
X81879000Y-91578000D01*
X81349000Y-94058000D02*
X81349000Y-95118000D01*
G04 #@! TO.C,C5*
X52578000Y-55245000D02*
X57658000Y-55245000D01*
X57658000Y-55245000D02*
X57658000Y-67945000D01*
X57658000Y-67945000D02*
X52578000Y-67945000D01*
X52578000Y-67945000D02*
X52578000Y-55245000D01*
X52578000Y-57785000D02*
X57658000Y-57785000D01*
X52998000Y-58585000D02*
X53938000Y-58585000D01*
X53478000Y-59085000D02*
X53478000Y-58075000D01*
X55958000Y-58605000D02*
X57018000Y-58605000D01*
G04 #@! TO.C,C4*
X74041000Y-77724000D02*
X79121000Y-77724000D01*
X79121000Y-77724000D02*
X79121000Y-90424000D01*
X79121000Y-90424000D02*
X74041000Y-90424000D01*
X74041000Y-90424000D02*
X74041000Y-77724000D01*
X74041000Y-80264000D02*
X79121000Y-80264000D01*
X74461000Y-81064000D02*
X75401000Y-81064000D01*
X74941000Y-81564000D02*
X74941000Y-80554000D01*
X77421000Y-81084000D02*
X78481000Y-81084000D01*
G04 #@! TO.C,C3*
X79756000Y-77724000D02*
X84836000Y-77724000D01*
X84836000Y-77724000D02*
X84836000Y-90424000D01*
X84836000Y-90424000D02*
X79756000Y-90424000D01*
X79756000Y-90424000D02*
X79756000Y-77724000D01*
X79756000Y-80264000D02*
X84836000Y-80264000D01*
X80176000Y-81064000D02*
X81116000Y-81064000D01*
X80656000Y-81564000D02*
X80656000Y-80554000D01*
X83136000Y-81084000D02*
X84196000Y-81084000D01*
G04 #@! TO.C,C2*
X86360000Y-72136000D02*
X86360000Y-77216000D01*
X86360000Y-77216000D02*
X73660000Y-77216000D01*
X73660000Y-77216000D02*
X73660000Y-72136000D01*
X73660000Y-72136000D02*
X86360000Y-72136000D01*
X83820000Y-72136000D02*
X83820000Y-77216000D01*
X83020000Y-72556000D02*
X83020000Y-73496000D01*
X82520000Y-73036000D02*
X83530000Y-73036000D01*
X83000000Y-75516000D02*
X83000000Y-76576000D01*
G04 #@! TO.C,C1*
X73025000Y-61214000D02*
X73025000Y-56134000D01*
X73025000Y-56134000D02*
X85725000Y-56134000D01*
X85725000Y-56134000D02*
X85725000Y-61214000D01*
X85725000Y-61214000D02*
X73025000Y-61214000D01*
X75565000Y-61214000D02*
X75565000Y-56134000D01*
X76365000Y-60794000D02*
X76365000Y-59854000D01*
X76865000Y-60314000D02*
X75855000Y-60314000D01*
X76385000Y-57834000D02*
X76385000Y-56774000D01*
D11*
G04 #@! TO.C,U1*
X104902000Y-75692000D02*
G75*
G03*
X104902000Y-75692000I-254000J0D01*
G01*
D12*
X101556820Y-70408800D02*
X108910120Y-70408800D01*
X101556820Y-61409580D02*
X101556820Y-70408800D01*
X108910120Y-61409580D02*
X101556820Y-61409580D01*
X108910120Y-70403720D02*
X108910120Y-61409580D01*
X106814620Y-74803000D02*
X86487000Y-74803000D01*
X107485180Y-74132440D02*
X106814620Y-74803000D01*
X107485180Y-57005220D02*
X107485180Y-74132440D01*
X86487000Y-57005220D02*
X107485180Y-57005220D01*
X86487000Y-74803000D02*
X86487000Y-57005220D01*
D13*
X104902000Y-62484000D02*
X107569000Y-62484000D01*
X107569000Y-62484000D02*
X107569000Y-60706000D01*
X104902000Y-60706000D02*
X107569000Y-60706000D01*
X104902000Y-62484000D02*
X104902000Y-60706000D01*
X100835460Y-62484000D02*
X103505000Y-62484000D01*
X103505000Y-62484000D02*
X103505000Y-60706000D01*
X100835460Y-60706000D02*
X103505000Y-60706000D01*
X100835460Y-62484000D02*
X100835460Y-60706000D01*
X100835460Y-71120000D02*
X103505000Y-71120000D01*
X103505000Y-71120000D02*
X103505000Y-69342000D01*
X100835460Y-69342000D02*
X103505000Y-69342000D01*
X100835460Y-71120000D02*
X100835460Y-69342000D01*
X104902000Y-71120000D02*
X107569000Y-71120000D01*
X107569000Y-71120000D02*
X107569000Y-69342000D01*
X104902000Y-69342000D02*
X107569000Y-69342000D01*
X104902000Y-71120000D02*
X104902000Y-69342000D01*
X87122000Y-68453000D02*
X89662000Y-68453000D01*
X89662000Y-68453000D02*
X89662000Y-62738000D01*
X87122000Y-62738000D02*
X89662000Y-62738000D01*
X87122000Y-68453000D02*
X87122000Y-62738000D01*
X104267000Y-68453000D02*
X106807000Y-68453000D01*
X106807000Y-68453000D02*
X106807000Y-63373000D01*
X104267000Y-63373000D02*
X106807000Y-63373000D01*
X104267000Y-68453000D02*
X104267000Y-63373000D01*
D10*
G04 #@! TO.C,U3*
X85503000Y-78613000D02*
X85503000Y-94883000D01*
X85503000Y-94883000D02*
X107613000Y-94883000D01*
X85503000Y-78613000D02*
X107569000Y-78553000D01*
X107613000Y-78613000D02*
X107613000Y-94883000D01*
G04 #@! TO.C,BT1*
X72525630Y-76694000D02*
G75*
G03*
X72525630Y-76694000I-10295630J0D01*
G01*
X58230000Y-85694000D02*
X58230000Y-92694000D01*
X58230000Y-92694000D02*
X66230000Y-92694000D01*
X66230000Y-92694000D02*
X66230000Y-85694000D01*
X58230000Y-67694000D02*
X58230000Y-60694000D01*
X58230000Y-60694000D02*
X66230000Y-60694000D01*
X66230000Y-60694000D02*
X66230000Y-67694000D01*
G04 #@! TO.C,SW1*
D14*
X55141761Y-88582666D02*
X55189380Y-88725523D01*
X55189380Y-88963619D01*
X55141761Y-89058857D01*
X55094142Y-89106476D01*
X54998904Y-89154095D01*
X54903666Y-89154095D01*
X54808428Y-89106476D01*
X54760809Y-89058857D01*
X54713190Y-88963619D01*
X54665571Y-88773142D01*
X54617952Y-88677904D01*
X54570333Y-88630285D01*
X54475095Y-88582666D01*
X54379857Y-88582666D01*
X54284619Y-88630285D01*
X54237000Y-88677904D01*
X54189380Y-88773142D01*
X54189380Y-89011238D01*
X54237000Y-89154095D01*
X54189380Y-89487428D02*
X55189380Y-89725523D01*
X54475095Y-89916000D01*
X55189380Y-90106476D01*
X54189380Y-90344571D01*
X55189380Y-91249333D02*
X55189380Y-90677904D01*
X55189380Y-90963619D02*
X54189380Y-90963619D01*
X54332238Y-90868380D01*
X54427476Y-90773142D01*
X54475095Y-90677904D01*
G04 #@! TO.C,C9*
X78402142Y-69195333D02*
X78449761Y-69147714D01*
X78497380Y-69004857D01*
X78497380Y-68909619D01*
X78449761Y-68766761D01*
X78354523Y-68671523D01*
X78259285Y-68623904D01*
X78068809Y-68576285D01*
X77925952Y-68576285D01*
X77735476Y-68623904D01*
X77640238Y-68671523D01*
X77545000Y-68766761D01*
X77497380Y-68909619D01*
X77497380Y-69004857D01*
X77545000Y-69147714D01*
X77592619Y-69195333D01*
X78497380Y-69671523D02*
X78497380Y-69862000D01*
X78449761Y-69957238D01*
X78402142Y-70004857D01*
X78259285Y-70100095D01*
X78068809Y-70147714D01*
X77687857Y-70147714D01*
X77592619Y-70100095D01*
X77545000Y-70052476D01*
X77497380Y-69957238D01*
X77497380Y-69766761D01*
X77545000Y-69671523D01*
X77592619Y-69623904D01*
X77687857Y-69576285D01*
X77925952Y-69576285D01*
X78021190Y-69623904D01*
X78068809Y-69671523D01*
X78116428Y-69766761D01*
X78116428Y-69957238D01*
X78068809Y-70052476D01*
X78021190Y-70100095D01*
X77925952Y-70147714D01*
G04 #@! TO.C,C8*
X69782666Y-63409142D02*
X69830285Y-63456761D01*
X69973142Y-63504380D01*
X70068380Y-63504380D01*
X70211238Y-63456761D01*
X70306476Y-63361523D01*
X70354095Y-63266285D01*
X70401714Y-63075809D01*
X70401714Y-62932952D01*
X70354095Y-62742476D01*
X70306476Y-62647238D01*
X70211238Y-62552000D01*
X70068380Y-62504380D01*
X69973142Y-62504380D01*
X69830285Y-62552000D01*
X69782666Y-62599619D01*
X69211238Y-62932952D02*
X69306476Y-62885333D01*
X69354095Y-62837714D01*
X69401714Y-62742476D01*
X69401714Y-62694857D01*
X69354095Y-62599619D01*
X69306476Y-62552000D01*
X69211238Y-62504380D01*
X69020761Y-62504380D01*
X68925523Y-62552000D01*
X68877904Y-62599619D01*
X68830285Y-62694857D01*
X68830285Y-62742476D01*
X68877904Y-62837714D01*
X68925523Y-62885333D01*
X69020761Y-62932952D01*
X69211238Y-62932952D01*
X69306476Y-62980571D01*
X69354095Y-63028190D01*
X69401714Y-63123428D01*
X69401714Y-63313904D01*
X69354095Y-63409142D01*
X69306476Y-63456761D01*
X69211238Y-63504380D01*
X69020761Y-63504380D01*
X68925523Y-63456761D01*
X68877904Y-63409142D01*
X68830285Y-63313904D01*
X68830285Y-63123428D01*
X68877904Y-63028190D01*
X68925523Y-62980571D01*
X69020761Y-62932952D01*
G04 #@! TO.C,C7*
X81062142Y-63821333D02*
X81109761Y-63773714D01*
X81157380Y-63630857D01*
X81157380Y-63535619D01*
X81109761Y-63392761D01*
X81014523Y-63297523D01*
X80919285Y-63249904D01*
X80728809Y-63202285D01*
X80585952Y-63202285D01*
X80395476Y-63249904D01*
X80300238Y-63297523D01*
X80205000Y-63392761D01*
X80157380Y-63535619D01*
X80157380Y-63630857D01*
X80205000Y-63773714D01*
X80252619Y-63821333D01*
X80157380Y-64154666D02*
X80157380Y-64821333D01*
X81157380Y-64392761D01*
G04 #@! TO.C,C6*
X80046142Y-93031333D02*
X80093761Y-92983714D01*
X80141380Y-92840857D01*
X80141380Y-92745619D01*
X80093761Y-92602761D01*
X79998523Y-92507523D01*
X79903285Y-92459904D01*
X79712809Y-92412285D01*
X79569952Y-92412285D01*
X79379476Y-92459904D01*
X79284238Y-92507523D01*
X79189000Y-92602761D01*
X79141380Y-92745619D01*
X79141380Y-92840857D01*
X79189000Y-92983714D01*
X79236619Y-93031333D01*
X79141380Y-93888476D02*
X79141380Y-93698000D01*
X79189000Y-93602761D01*
X79236619Y-93555142D01*
X79379476Y-93459904D01*
X79569952Y-93412285D01*
X79950904Y-93412285D01*
X80046142Y-93459904D01*
X80093761Y-93507523D01*
X80141380Y-93602761D01*
X80141380Y-93793238D01*
X80093761Y-93888476D01*
X80046142Y-93936095D01*
X79950904Y-93983714D01*
X79712809Y-93983714D01*
X79617571Y-93936095D01*
X79569952Y-93888476D01*
X79522333Y-93793238D01*
X79522333Y-93602761D01*
X79569952Y-93507523D01*
X79617571Y-93459904D01*
X79712809Y-93412285D01*
G04 #@! TO.C,C5*
X55264666Y-60622142D02*
X55312285Y-60669761D01*
X55455142Y-60717380D01*
X55550380Y-60717380D01*
X55693238Y-60669761D01*
X55788476Y-60574523D01*
X55836095Y-60479285D01*
X55883714Y-60288809D01*
X55883714Y-60145952D01*
X55836095Y-59955476D01*
X55788476Y-59860238D01*
X55693238Y-59765000D01*
X55550380Y-59717380D01*
X55455142Y-59717380D01*
X55312285Y-59765000D01*
X55264666Y-59812619D01*
X54359904Y-59717380D02*
X54836095Y-59717380D01*
X54883714Y-60193571D01*
X54836095Y-60145952D01*
X54740857Y-60098333D01*
X54502761Y-60098333D01*
X54407523Y-60145952D01*
X54359904Y-60193571D01*
X54312285Y-60288809D01*
X54312285Y-60526904D01*
X54359904Y-60622142D01*
X54407523Y-60669761D01*
X54502761Y-60717380D01*
X54740857Y-60717380D01*
X54836095Y-60669761D01*
X54883714Y-60622142D01*
G04 #@! TO.C,C4*
X76727666Y-83101142D02*
X76775285Y-83148761D01*
X76918142Y-83196380D01*
X77013380Y-83196380D01*
X77156238Y-83148761D01*
X77251476Y-83053523D01*
X77299095Y-82958285D01*
X77346714Y-82767809D01*
X77346714Y-82624952D01*
X77299095Y-82434476D01*
X77251476Y-82339238D01*
X77156238Y-82244000D01*
X77013380Y-82196380D01*
X76918142Y-82196380D01*
X76775285Y-82244000D01*
X76727666Y-82291619D01*
X75870523Y-82529714D02*
X75870523Y-83196380D01*
X76108619Y-82148761D02*
X76346714Y-82863047D01*
X75727666Y-82863047D01*
G04 #@! TO.C,C3*
X82442666Y-83101142D02*
X82490285Y-83148761D01*
X82633142Y-83196380D01*
X82728380Y-83196380D01*
X82871238Y-83148761D01*
X82966476Y-83053523D01*
X83014095Y-82958285D01*
X83061714Y-82767809D01*
X83061714Y-82624952D01*
X83014095Y-82434476D01*
X82966476Y-82339238D01*
X82871238Y-82244000D01*
X82728380Y-82196380D01*
X82633142Y-82196380D01*
X82490285Y-82244000D01*
X82442666Y-82291619D01*
X82109333Y-82196380D02*
X81490285Y-82196380D01*
X81823619Y-82577333D01*
X81680761Y-82577333D01*
X81585523Y-82624952D01*
X81537904Y-82672571D01*
X81490285Y-82767809D01*
X81490285Y-83005904D01*
X81537904Y-83101142D01*
X81585523Y-83148761D01*
X81680761Y-83196380D01*
X81966476Y-83196380D01*
X82061714Y-83148761D01*
X82109333Y-83101142D01*
G04 #@! TO.C,C2*
X81697142Y-74489333D02*
X81744761Y-74441714D01*
X81792380Y-74298857D01*
X81792380Y-74203619D01*
X81744761Y-74060761D01*
X81649523Y-73965523D01*
X81554285Y-73917904D01*
X81363809Y-73870285D01*
X81220952Y-73870285D01*
X81030476Y-73917904D01*
X80935238Y-73965523D01*
X80840000Y-74060761D01*
X80792380Y-74203619D01*
X80792380Y-74298857D01*
X80840000Y-74441714D01*
X80887619Y-74489333D01*
X80887619Y-74870285D02*
X80840000Y-74917904D01*
X80792380Y-75013142D01*
X80792380Y-75251238D01*
X80840000Y-75346476D01*
X80887619Y-75394095D01*
X80982857Y-75441714D01*
X81078095Y-75441714D01*
X81220952Y-75394095D01*
X81792380Y-74822666D01*
X81792380Y-75441714D01*
G04 #@! TO.C,C1*
X78402142Y-58527333D02*
X78449761Y-58479714D01*
X78497380Y-58336857D01*
X78497380Y-58241619D01*
X78449761Y-58098761D01*
X78354523Y-58003523D01*
X78259285Y-57955904D01*
X78068809Y-57908285D01*
X77925952Y-57908285D01*
X77735476Y-57955904D01*
X77640238Y-58003523D01*
X77545000Y-58098761D01*
X77497380Y-58241619D01*
X77497380Y-58336857D01*
X77545000Y-58479714D01*
X77592619Y-58527333D01*
X78497380Y-59479714D02*
X78497380Y-58908285D01*
X78497380Y-59194000D02*
X77497380Y-59194000D01*
X77640238Y-59098761D01*
X77735476Y-59003523D01*
X77783095Y-58908285D01*
G04 #@! TO.C,U1*
D15*
X87778166Y-70061666D02*
X88497833Y-70061666D01*
X88582500Y-70104000D01*
X88624833Y-70146333D01*
X88667166Y-70231000D01*
X88667166Y-70400333D01*
X88624833Y-70485000D01*
X88582500Y-70527333D01*
X88497833Y-70569666D01*
X87778166Y-70569666D01*
X88667166Y-71458666D02*
X88667166Y-70950666D01*
X88667166Y-71204666D02*
X87778166Y-71204666D01*
X87905166Y-71120000D01*
X87989833Y-71035333D01*
X88032166Y-70950666D01*
D16*
X97528742Y-62690828D02*
X97557771Y-62777914D01*
X97557771Y-62923057D01*
X97528742Y-62981114D01*
X97499714Y-63010142D01*
X97441657Y-63039171D01*
X97383600Y-63039171D01*
X97325542Y-63010142D01*
X97296514Y-62981114D01*
X97267485Y-62923057D01*
X97238457Y-62806942D01*
X97209428Y-62748885D01*
X97180400Y-62719857D01*
X97122342Y-62690828D01*
X97064285Y-62690828D01*
X97006228Y-62719857D01*
X96977200Y-62748885D01*
X96948171Y-62806942D01*
X96948171Y-62952085D01*
X96977200Y-63039171D01*
X97528742Y-63532657D02*
X97557771Y-63474600D01*
X97557771Y-63358485D01*
X97528742Y-63300428D01*
X97470685Y-63271400D01*
X97238457Y-63271400D01*
X97180400Y-63300428D01*
X97151371Y-63358485D01*
X97151371Y-63474600D01*
X97180400Y-63532657D01*
X97238457Y-63561685D01*
X97296514Y-63561685D01*
X97354571Y-63271400D01*
X97528742Y-64055171D02*
X97557771Y-63997114D01*
X97557771Y-63881000D01*
X97528742Y-63822942D01*
X97470685Y-63793914D01*
X97238457Y-63793914D01*
X97180400Y-63822942D01*
X97151371Y-63881000D01*
X97151371Y-63997114D01*
X97180400Y-64055171D01*
X97238457Y-64084200D01*
X97296514Y-64084200D01*
X97354571Y-63793914D01*
X97528742Y-64577685D02*
X97557771Y-64519628D01*
X97557771Y-64403514D01*
X97528742Y-64345457D01*
X97470685Y-64316428D01*
X97238457Y-64316428D01*
X97180400Y-64345457D01*
X97151371Y-64403514D01*
X97151371Y-64519628D01*
X97180400Y-64577685D01*
X97238457Y-64606714D01*
X97296514Y-64606714D01*
X97354571Y-64316428D01*
X97557771Y-65129228D02*
X96948171Y-65129228D01*
X97528742Y-65129228D02*
X97557771Y-65071171D01*
X97557771Y-64955057D01*
X97528742Y-64897000D01*
X97499714Y-64867971D01*
X97441657Y-64838942D01*
X97267485Y-64838942D01*
X97209428Y-64867971D01*
X97180400Y-64897000D01*
X97151371Y-64955057D01*
X97151371Y-65071171D01*
X97180400Y-65129228D01*
X97151371Y-65680771D02*
X97557771Y-65680771D01*
X97151371Y-65419514D02*
X97470685Y-65419514D01*
X97528742Y-65448542D01*
X97557771Y-65506600D01*
X97557771Y-65593685D01*
X97528742Y-65651742D01*
X97499714Y-65680771D01*
X97557771Y-65971057D02*
X97151371Y-65971057D01*
X96948171Y-65971057D02*
X96977200Y-65942028D01*
X97006228Y-65971057D01*
X96977200Y-66000085D01*
X96948171Y-65971057D01*
X97006228Y-65971057D01*
X97151371Y-66261342D02*
X97557771Y-66261342D01*
X97209428Y-66261342D02*
X97180400Y-66290371D01*
X97151371Y-66348428D01*
X97151371Y-66435514D01*
X97180400Y-66493571D01*
X97238457Y-66522600D01*
X97557771Y-66522600D01*
X97557771Y-66899971D02*
X97528742Y-66841914D01*
X97499714Y-66812885D01*
X97441657Y-66783857D01*
X97267485Y-66783857D01*
X97209428Y-66812885D01*
X97180400Y-66841914D01*
X97151371Y-66899971D01*
X97151371Y-66987057D01*
X97180400Y-67045114D01*
X97209428Y-67074142D01*
X97267485Y-67103171D01*
X97441657Y-67103171D01*
X97499714Y-67074142D01*
X97528742Y-67045114D01*
X97557771Y-66987057D01*
X97557771Y-66899971D01*
X96948171Y-67306371D02*
X97557771Y-67712771D01*
X96948171Y-67712771D02*
X97557771Y-67306371D01*
X97557771Y-67945000D02*
X96948171Y-67945000D01*
X97383600Y-68206257D02*
X97383600Y-68496542D01*
X97557771Y-68148200D02*
X96948171Y-68351400D01*
X97557771Y-68554600D01*
X96948171Y-68873914D02*
X96948171Y-68990028D01*
X96977200Y-69048085D01*
X97035257Y-69106142D01*
X97151371Y-69135171D01*
X97354571Y-69135171D01*
X97470685Y-69106142D01*
X97528742Y-69048085D01*
X97557771Y-68990028D01*
X97557771Y-68873914D01*
X97528742Y-68815857D01*
X97470685Y-68757800D01*
X97354571Y-68728771D01*
X97151371Y-68728771D01*
X97035257Y-68757800D01*
X96977200Y-68815857D01*
X96948171Y-68873914D01*
G04 #@! TO.C,U3*
D14*
X86955380Y-83439095D02*
X87764904Y-83439095D01*
X87860142Y-83486714D01*
X87907761Y-83534333D01*
X87955380Y-83629571D01*
X87955380Y-83820047D01*
X87907761Y-83915285D01*
X87860142Y-83962904D01*
X87764904Y-84010523D01*
X86955380Y-84010523D01*
X86955380Y-84391476D02*
X86955380Y-85010523D01*
X87336333Y-84677190D01*
X87336333Y-84820047D01*
X87383952Y-84915285D01*
X87431571Y-84962904D01*
X87526809Y-85010523D01*
X87764904Y-85010523D01*
X87860142Y-84962904D01*
X87907761Y-84915285D01*
X87955380Y-84820047D01*
X87955380Y-84534333D01*
X87907761Y-84439095D01*
X87860142Y-84391476D01*
G04 #@! TO.C,BT1*
X62301428Y-65313047D02*
X62301428Y-66074952D01*
X62682380Y-65694000D02*
X61920476Y-65694000D01*
G04 #@! TD*
M02*
