M48
INCH,TZ
T1C0.0157
T2C0.0300
T3C0.0315
T4C0.0335
T5C0.0394
%
G90
G05
T1
X23000Y-22100
X23050Y-29350
X23950Y-29800
X24000Y-22150
X25000Y-22150
X25400Y-28900
X25750Y-28550
X26000Y-22150
X26700Y-28900
X26700Y-29350
X26700Y-29800
X26850Y-36100
X27050Y-28550
X28000Y-22150
X28400Y-25200
X29550Y-24650
X29550Y-25200
X30950Y-22850
X31100Y-25200
X31350Y-26850
X31525Y-22275
X31600Y-25850
X31650Y-22650
X32100Y-28200
X32350Y-24950
X33750Y-23050
X35450Y-21850
X35650Y-27300
X36500Y-27950
X39400Y-26850
X40025Y-24225
X40700Y-30400
X41175Y-24225
X41550Y-20450
X41750Y-25600
X42146Y-21846
X42150Y-30400
X42550Y-32600
T2
X22000Y-21100
X22000Y-38100
X23000Y-21100
X23000Y-38100
X24000Y-21100
X24000Y-38100
X24500Y-24289
X24500Y-36100
X25000Y-21100
X26000Y-21100
X27000Y-21100
X28000Y-21100
X29000Y-21100
X30000Y-21100
X31000Y-21100
X32000Y-21100
X33000Y-21100
X34000Y-21100
X35000Y-21100
X35050Y-22950
X35050Y-28950
X36000Y-21100
X36050Y-22950
X36050Y-28950
X37000Y-21100
X37050Y-22950
X37050Y-28950
X38000Y-21100
X38050Y-22950
X38050Y-28950
X39000Y-21100
X39000Y-38100
X39050Y-22950
X39050Y-28950
X40000Y-21100
X40000Y-38100
X40050Y-22950
X40050Y-28950
X41000Y-21100
X41000Y-38100
X41050Y-22950
X41050Y-28950
T3
X21200Y-22250
X22184Y-22250
X26916Y-26300
X27900Y-26300
X29250Y-22616
X29250Y-23600
X29250Y-26816
X29250Y-27800
X29650Y-31100
X30634Y-31100
X31900Y-31100
X32850Y-36200
X32850Y-37184
X32884Y-31100
X33250Y-24700
X33250Y-25684
X33500Y-28900
X33500Y-29884
T4
X20650Y-35050
X20650Y-36204
T5
X34450Y-31450
X35450Y-31450
X36450Y-31450
X37450Y-31450
X38450Y-31450
X39450Y-31450
X40450Y-31450
X41450Y-31450
T0
M30
