G04 #@! TF.GenerationSoftware,KiCad,Pcbnew,(5.1.9-0-10_14)*
G04 #@! TF.CreationDate,2022-07-17T12:53:42+02:00*
G04 #@! TF.ProjectId,sandsim,73616e64-7369-46d2-9e6b-696361645f70,rev?*
G04 #@! TF.SameCoordinates,Original*
G04 #@! TF.FileFunction,Copper,L1,Top*
G04 #@! TF.FilePolarity,Positive*
%FSLAX46Y46*%
G04 Gerber Fmt 4.6, Leading zero omitted, Abs format (unit mm)*
G04 Created by KiCad (PCBNEW (5.1.9-0-10_14)) date 2022-07-17 12:53:42*
%MOMM*%
%LPD*%
G01*
G04 APERTURE LIST*
G04 #@! TA.AperFunction,ComponentPad*
%ADD10C,2.000000*%
G04 #@! TD*
G04 #@! TA.AperFunction,ComponentPad*
%ADD11C,1.600000*%
G04 #@! TD*
G04 #@! TA.AperFunction,ComponentPad*
%ADD12R,1.600000X1.600000*%
G04 #@! TD*
G04 #@! TA.AperFunction,ComponentPad*
%ADD13C,1.524000*%
G04 #@! TD*
G04 #@! TA.AperFunction,ComponentPad*
%ADD14O,1.700000X1.700000*%
G04 #@! TD*
G04 #@! TA.AperFunction,ComponentPad*
%ADD15R,1.700000X1.700000*%
G04 #@! TD*
G04 #@! TA.AperFunction,ComponentPad*
%ADD16R,1.524000X1.524000*%
G04 #@! TD*
G04 #@! TA.AperFunction,ComponentPad*
%ADD17R,4.000000X5.000000*%
G04 #@! TD*
G04 #@! TA.AperFunction,ViaPad*
%ADD18C,0.600000*%
G04 #@! TD*
G04 #@! TA.AperFunction,Conductor*
%ADD19C,0.250000*%
G04 #@! TD*
G04 APERTURE END LIST*
D10*
G04 #@! TO.P,SW1,2*
G04 #@! TO.N,Net-(SW1-Pad2)*
X52451000Y-91957000D03*
G04 #@! TO.P,SW1,1*
G04 #@! TO.N,Net-(BT1-Pad1)*
G04 #@! TA.AperFunction,ComponentPad*
G36*
G01*
X51701000Y-88027000D02*
X53201000Y-88027000D01*
G75*
G02*
X53451000Y-88277000I0J-250000D01*
G01*
X53451000Y-89777000D01*
G75*
G02*
X53201000Y-90027000I-250000J0D01*
G01*
X51701000Y-90027000D01*
G75*
G02*
X51451000Y-89777000I0J250000D01*
G01*
X51451000Y-88277000D01*
G75*
G02*
X51701000Y-88027000I250000J0D01*
G01*
G37*
G04 #@! TD.AperFunction*
G04 #@! TD*
D11*
G04 #@! TO.P,C9,2*
G04 #@! TO.N,Net-(C9-Pad2)*
X74295000Y-68112000D03*
D12*
G04 #@! TO.P,C9,1*
G04 #@! TO.N,Net-(C9-Pad1)*
X74295000Y-70612000D03*
G04 #@! TD*
D11*
G04 #@! TO.P,C8,2*
G04 #@! TO.N,Net-(C7-Pad2)*
X68366000Y-66802000D03*
D12*
G04 #@! TO.P,C8,1*
G04 #@! TO.N,Net-(C8-Pad1)*
X70866000Y-66802000D03*
G04 #@! TD*
D11*
G04 #@! TO.P,C7,2*
G04 #@! TO.N,Net-(C7-Pad2)*
X84455000Y-65238000D03*
D12*
G04 #@! TO.P,C7,1*
G04 #@! TO.N,Net-(C7-Pad1)*
X84455000Y-62738000D03*
G04 #@! TD*
D11*
G04 #@! TO.P,C6,2*
G04 #@! TO.N,Net-(BT1-Pad2)*
X83439000Y-94448000D03*
D12*
G04 #@! TO.P,C6,1*
G04 #@! TO.N,Net-(C6-Pad1)*
X83439000Y-91948000D03*
G04 #@! TD*
D11*
G04 #@! TO.P,C5,2*
G04 #@! TO.N,Net-(BT1-Pad2)*
X56348000Y-56515000D03*
D12*
G04 #@! TO.P,C5,1*
G04 #@! TO.N,Net-(C5-Pad1)*
X53848000Y-56515000D03*
G04 #@! TD*
D11*
G04 #@! TO.P,C4,2*
G04 #@! TO.N,Net-(BT1-Pad2)*
X77811000Y-78994000D03*
D12*
G04 #@! TO.P,C4,1*
G04 #@! TO.N,Net-(C4-Pad1)*
X75311000Y-78994000D03*
G04 #@! TD*
D11*
G04 #@! TO.P,C3,2*
G04 #@! TO.N,Net-(BT1-Pad2)*
X83526000Y-78994000D03*
D12*
G04 #@! TO.P,C3,1*
G04 #@! TO.N,Net-(C3-Pad1)*
X81026000Y-78994000D03*
G04 #@! TD*
D11*
G04 #@! TO.P,C2,2*
G04 #@! TO.N,Net-(BT1-Pad2)*
X85090000Y-75906000D03*
D12*
G04 #@! TO.P,C2,1*
G04 #@! TO.N,Net-(C2-Pad1)*
X85090000Y-73406000D03*
G04 #@! TD*
D11*
G04 #@! TO.P,C1,2*
G04 #@! TO.N,Net-(BT1-Pad2)*
X74295000Y-57444000D03*
D12*
G04 #@! TO.P,C1,1*
G04 #@! TO.N,Net-(C1-Pad1)*
X74295000Y-59944000D03*
G04 #@! TD*
D13*
G04 #@! TO.P,U1,1*
G04 #@! TO.N,Net-(U1-Pad1)*
X104267000Y-73533000D03*
G04 #@! TO.P,U1,2*
G04 #@! TO.N,Net-(U1-Pad2)*
X101727000Y-73533000D03*
G04 #@! TO.P,U1,3*
G04 #@! TO.N,Net-(U1-Pad3)*
X99187000Y-73533000D03*
G04 #@! TO.P,U1,4*
G04 #@! TO.N,Net-(U1-Pad4)*
X96647000Y-73533000D03*
G04 #@! TO.P,U1,5*
G04 #@! TO.N,Net-(U1-Pad5)*
X94107000Y-73533000D03*
G04 #@! TO.P,U1,6*
G04 #@! TO.N,Net-(U1-Pad6)*
X91567000Y-73533000D03*
G04 #@! TO.P,U1,7*
G04 #@! TO.N,Net-(U1-Pad7)*
X89027000Y-73533000D03*
G04 #@! TO.P,U1,8*
G04 #@! TO.N,Net-(U1-Pad8)*
X89027000Y-58293000D03*
G04 #@! TO.P,U1,9*
G04 #@! TO.N,Net-(U1-Pad9)*
X91567000Y-58293000D03*
G04 #@! TO.P,U1,10*
G04 #@! TO.N,Net-(U1-Pad10)*
X94107000Y-58293000D03*
G04 #@! TO.P,U1,11*
G04 #@! TO.N,Net-(U1-Pad11)*
X96647000Y-58293000D03*
G04 #@! TO.P,U1,12*
G04 #@! TO.N,Net-(SW1-Pad2)*
X99187000Y-58293000D03*
G04 #@! TO.P,U1,13*
G04 #@! TO.N,Net-(BT1-Pad2)*
X101727000Y-58293000D03*
G04 #@! TO.P,U1,14*
G04 #@! TO.N,Net-(U1-Pad14)*
X104267000Y-58293000D03*
G04 #@! TD*
D14*
G04 #@! TO.P,U3,8*
G04 #@! TO.N,Net-(U3-Pad8)*
X105283000Y-79883000D03*
G04 #@! TO.P,U3,7*
G04 #@! TO.N,Net-(U3-Pad7)*
X102743000Y-79883000D03*
G04 #@! TO.P,U3,6*
G04 #@! TO.N,Net-(U3-Pad6)*
X100203000Y-79883000D03*
G04 #@! TO.P,U3,5*
G04 #@! TO.N,Net-(U3-Pad5)*
X97663000Y-79883000D03*
G04 #@! TO.P,U3,4*
G04 #@! TO.N,Net-(U1-Pad5)*
X95123000Y-79883000D03*
G04 #@! TO.P,U3,3*
G04 #@! TO.N,Net-(U1-Pad6)*
X92583000Y-79883000D03*
G04 #@! TO.P,U3,2*
G04 #@! TO.N,Net-(BT1-Pad2)*
X90043000Y-79883000D03*
D15*
G04 #@! TO.P,U3,1*
G04 #@! TO.N,Net-(SW1-Pad2)*
X87503000Y-79883000D03*
G04 #@! TD*
D13*
G04 #@! TO.P,U2,40*
G04 #@! TO.N,Net-(U1-Pad2)*
X55880000Y-53594000D03*
G04 #@! TO.P,U2,39*
G04 #@! TO.N,Net-(U1-Pad4)*
X58420000Y-53594000D03*
G04 #@! TO.P,U2,38*
G04 #@! TO.N,Net-(U1-Pad3)*
X60960000Y-53594000D03*
G04 #@! TO.P,U2,37*
G04 #@! TO.N,Net-(U1-Pad9)*
X63500000Y-53594000D03*
G04 #@! TO.P,U2,36*
G04 #@! TO.N,Net-(U1-Pad11)*
X66040000Y-53594000D03*
G04 #@! TO.P,U2,35*
G04 #@! TO.N,Net-(SW1-Pad2)*
X68580000Y-53594000D03*
G04 #@! TO.P,U2,34*
X71120000Y-53594000D03*
G04 #@! TO.P,U2,33*
G04 #@! TO.N,Net-(BT1-Pad2)*
X73660000Y-53594000D03*
G04 #@! TO.P,U2,32*
G04 #@! TO.N,Net-(C1-Pad1)*
X76200000Y-53594000D03*
G04 #@! TO.P,U2,31*
G04 #@! TO.N,Net-(C7-Pad1)*
X78740000Y-53594000D03*
G04 #@! TO.P,U2,30*
G04 #@! TO.N,Net-(C7-Pad2)*
X81280000Y-53594000D03*
G04 #@! TO.P,U2,29*
G04 #@! TO.N,Net-(C8-Pad1)*
X83820000Y-53594000D03*
G04 #@! TO.P,U2,28*
G04 #@! TO.N,Net-(C9-Pad1)*
X86360000Y-53594000D03*
G04 #@! TO.P,U2,27*
G04 #@! TO.N,Net-(C9-Pad2)*
X88900000Y-53594000D03*
G04 #@! TO.P,U2,26*
G04 #@! TO.N,Net-(BT1-Pad2)*
X91440000Y-53594000D03*
G04 #@! TO.P,U2,25*
G04 #@! TO.N,Net-(C2-Pad1)*
X93980000Y-53594000D03*
G04 #@! TO.P,U2,24*
G04 #@! TO.N,Net-(C3-Pad1)*
X96520000Y-53594000D03*
G04 #@! TO.P,U2,23*
G04 #@! TO.N,Net-(C4-Pad1)*
X99060000Y-53594000D03*
G04 #@! TO.P,U2,22*
G04 #@! TO.N,Net-(C5-Pad1)*
X101600000Y-53594000D03*
G04 #@! TO.P,U2,21*
G04 #@! TO.N,Net-(C6-Pad1)*
X104140000Y-53594000D03*
G04 #@! TO.P,U2,20*
G04 #@! TO.N,N/C*
X104140000Y-96774000D03*
G04 #@! TO.P,U2,19*
X101600000Y-96774000D03*
G04 #@! TO.P,U2,18*
X99060000Y-96774000D03*
G04 #@! TO.P,U2,3*
X60960000Y-96774000D03*
G04 #@! TO.P,U2,2*
X58420000Y-96774000D03*
D16*
G04 #@! TO.P,U2,1*
X55880000Y-96774000D03*
G04 #@! TD*
D17*
G04 #@! TO.P,BT1,1*
G04 #@! TO.N,Net-(BT1-Pad1)*
X62230000Y-61694000D03*
G04 #@! TO.P,BT1,2*
G04 #@! TO.N,Net-(BT1-Pad2)*
X62230000Y-91694000D03*
G04 #@! TD*
D18*
G04 #@! TO.N,Net-(BT1-Pad2)*
X68199000Y-91694000D03*
X80264000Y-65659000D03*
X78994000Y-64008000D03*
G04 #@! TO.N,Net-(C2-Pad1)*
X92710000Y-70993000D03*
X100076000Y-68199000D03*
G04 #@! TO.N,Net-(C3-Pad1)*
X79629000Y-68199000D03*
X85725000Y-58547000D03*
X90043000Y-55499000D03*
G04 #@! TO.N,Net-(C4-Pad1)*
X107049980Y-55487980D03*
X107061000Y-77216000D03*
X103378000Y-77216000D03*
G04 #@! TO.N,Net-(C8-Pad1)*
X82169000Y-63373000D03*
G04 #@! TO.N,Net-(C9-Pad2)*
X80391000Y-57531000D03*
X72136000Y-64008000D03*
G04 #@! TO.N,Net-(C9-Pad1)*
X75057000Y-64008000D03*
X75057000Y-62611000D03*
X80073500Y-56578500D03*
X78613000Y-58039000D03*
G04 #@! TO.N,Net-(SW1-Pad2)*
X71120000Y-56261000D03*
X106045000Y-65024000D03*
X108077000Y-82804000D03*
G04 #@! TO.N,Net-(U1-Pad2)*
X101663500Y-61531500D03*
X104584500Y-61531500D03*
X105537000Y-51943000D03*
G04 #@! TO.N,Net-(U1-Pad3)*
X60960000Y-56261000D03*
X67818000Y-75692000D03*
X60833000Y-75692000D03*
G04 #@! TO.N,Net-(U1-Pad4)*
X58420000Y-56134000D03*
X81534000Y-71628000D03*
X67818000Y-74549000D03*
X58547000Y-74549000D03*
G04 #@! TO.N,Net-(U1-Pad9)*
X63500000Y-56261000D03*
X64516000Y-73406000D03*
X67818000Y-73406000D03*
G04 #@! TO.N,Net-(U1-Pad11)*
X66040000Y-56261000D03*
X65405000Y-72517000D03*
X68707000Y-72517000D03*
X90551000Y-69342000D03*
G04 #@! TD*
D19*
G04 #@! TO.N,Net-(BT1-Pad1)*
X62230000Y-79248000D02*
X52451000Y-89027000D01*
X62230000Y-61694000D02*
X62230000Y-79248000D01*
G04 #@! TO.N,Net-(BT1-Pad2)*
X62230000Y-91694000D02*
X68199000Y-91694000D01*
X68199000Y-91694000D02*
X68199000Y-91694000D01*
X73660000Y-56809000D02*
X74295000Y-57444000D01*
X56348000Y-56515000D02*
X57618000Y-55245000D01*
X57618000Y-55245000D02*
X73660000Y-55245000D01*
X73660000Y-55245000D02*
X73660000Y-56809000D01*
X73660000Y-53594000D02*
X73660000Y-55245000D01*
X80264000Y-65659000D02*
X80264000Y-64770000D01*
X80264000Y-64770000D02*
X79502000Y-64008000D01*
X79502000Y-64008000D02*
X78994000Y-64008000D01*
X78994000Y-64008000D02*
X78994000Y-64008000D01*
G04 #@! TO.N,Net-(C1-Pad1)*
X76200000Y-58039000D02*
X74295000Y-59944000D01*
X76200000Y-53594000D02*
X76200000Y-58039000D01*
G04 #@! TO.N,Net-(C2-Pad1)*
X92710000Y-70993000D02*
X92710000Y-68199000D01*
X92710000Y-68199000D02*
X100076000Y-68199000D01*
X100076000Y-68199000D02*
X100076000Y-68199000D01*
G04 #@! TO.N,Net-(C3-Pad1)*
X79629000Y-68199000D02*
X81788000Y-68199000D01*
X81788000Y-68199000D02*
X87884000Y-68199000D01*
X87884000Y-68199000D02*
X87884000Y-60579000D01*
X87884000Y-60579000D02*
X87630000Y-60579000D01*
X87630000Y-60579000D02*
X85725000Y-60579000D01*
X85725000Y-60579000D02*
X85725000Y-58547000D01*
X85725000Y-58547000D02*
X85725000Y-58547000D01*
X90043000Y-55499000D02*
X96520000Y-55499000D01*
X96520000Y-55499000D02*
X96520000Y-53594000D01*
G04 #@! TO.N,Net-(C4-Pad1)*
X107049980Y-60846840D02*
X105031820Y-62865000D01*
X107049980Y-55487980D02*
X107049980Y-60846840D01*
X105031820Y-62865000D02*
X105031820Y-69339180D01*
X106368010Y-70552600D02*
X106368010Y-77146990D01*
X105154590Y-69339180D02*
X106368010Y-70552600D01*
X105031820Y-69339180D02*
X105154590Y-69339180D01*
X106368010Y-77146990D02*
X106437020Y-77216000D01*
X106437020Y-77216000D02*
X107061000Y-77216000D01*
X107061000Y-77216000D02*
X107061000Y-77216000D01*
X103378000Y-77216000D02*
X86741000Y-77216000D01*
X86741000Y-77216000D02*
X86360000Y-77597000D01*
X86360000Y-77597000D02*
X84201000Y-77597000D01*
X84201000Y-77597000D02*
X83566000Y-76962000D01*
X83566000Y-76962000D02*
X75311000Y-76962000D01*
X75311000Y-76962000D02*
X75311000Y-78994000D01*
G04 #@! TO.N,Net-(C5-Pad1)*
X53848000Y-56515000D02*
X53848000Y-57404000D01*
X53848000Y-56515000D02*
X53848000Y-52832000D01*
X53848000Y-52832000D02*
X54864000Y-51816000D01*
X99822000Y-51816000D02*
X101600000Y-53594000D01*
X54864000Y-51816000D02*
X99822000Y-51816000D01*
G04 #@! TO.N,Net-(C6-Pad1)*
X83439000Y-91948000D02*
X105791000Y-91948000D01*
X105791000Y-91948000D02*
X107315000Y-90424000D01*
X107315000Y-81788000D02*
X107315000Y-82042000D01*
X107315000Y-90424000D02*
X107315000Y-81788000D01*
X107315000Y-78740000D02*
X107315000Y-81788000D01*
X105918000Y-77343000D02*
X107315000Y-78740000D01*
X105918000Y-70739000D02*
X105918000Y-77343000D01*
X105918000Y-60706000D02*
X103378000Y-60706000D01*
X105918000Y-55372000D02*
X105918000Y-60706000D01*
X104140000Y-53594000D02*
X105918000Y-55372000D01*
X103378000Y-60706000D02*
X103378000Y-70739000D01*
X103378000Y-70739000D02*
X104140000Y-70739000D01*
X104140000Y-70739000D02*
X105918000Y-70739000D01*
X103632000Y-70739000D02*
X104140000Y-70739000D01*
G04 #@! TO.N,Net-(C7-Pad2)*
X83947000Y-65786000D02*
X83947000Y-65786000D01*
G04 #@! TO.N,Net-(C7-Pad1)*
X78740000Y-57023000D02*
X84455000Y-62738000D01*
X78740000Y-53594000D02*
X78740000Y-57023000D01*
G04 #@! TO.N,Net-(C8-Pad1)*
X70866000Y-66802000D02*
X70866000Y-64389000D01*
X71882000Y-63373000D02*
X82169000Y-63373000D01*
X70866000Y-64389000D02*
X71882000Y-63373000D01*
G04 #@! TO.N,Net-(C9-Pad2)*
X88900000Y-53594000D02*
X88900000Y-55245000D01*
X88900000Y-55245000D02*
X86614000Y-57531000D01*
X86614000Y-57531000D02*
X80391000Y-57531000D01*
X80391000Y-57531000D02*
X80391000Y-57531000D01*
X74295000Y-68112000D02*
X74295000Y-66167000D01*
X74295000Y-66167000D02*
X72136000Y-64008000D01*
X72136000Y-64008000D02*
X72136000Y-64008000D01*
G04 #@! TO.N,Net-(C9-Pad1)*
X86360000Y-53594000D02*
X86360000Y-55372000D01*
X86360000Y-55372000D02*
X81280000Y-55372000D01*
X81280000Y-55372000D02*
X80073500Y-56578500D01*
X74295000Y-70612000D02*
X78105000Y-70612000D01*
X78105000Y-70612000D02*
X78105000Y-64008000D01*
X78105000Y-64008000D02*
X75057000Y-64008000D01*
X75057000Y-64008000D02*
X75057000Y-64008000D01*
X80073500Y-56578500D02*
X80010000Y-56642000D01*
X78613000Y-59055000D02*
X75057000Y-62611000D01*
X78613000Y-58039000D02*
X78613000Y-59055000D01*
G04 #@! TO.N,Net-(SW1-Pad2)*
X52451000Y-91957000D02*
X53957000Y-91957000D01*
X53957000Y-91957000D02*
X61914000Y-84000000D01*
X83386000Y-84000000D02*
X87503000Y-79883000D01*
X71120000Y-56261000D02*
X71120000Y-62992000D01*
X71120000Y-62992000D02*
X69342000Y-64770000D01*
X69342000Y-64770000D02*
X67564000Y-64770000D01*
X66241000Y-66093000D02*
X66241000Y-84000000D01*
X67564000Y-64770000D02*
X66241000Y-66093000D01*
X66241000Y-84000000D02*
X83386000Y-84000000D01*
X61914000Y-84000000D02*
X66241000Y-84000000D01*
X106045000Y-65024000D02*
X106818020Y-65797020D01*
X106818020Y-65797020D02*
X106818020Y-70366200D01*
X106818020Y-70366200D02*
X106818020Y-75957020D01*
X106818020Y-75957020D02*
X108077000Y-77216000D01*
X108077000Y-77216000D02*
X108077000Y-82804000D01*
X108077000Y-82804000D02*
X108077000Y-82804000D01*
G04 #@! TO.N,Net-(U1-Pad2)*
X100965001Y-72771001D02*
X100965001Y-62229999D01*
X101727000Y-73533000D02*
X100965001Y-72771001D01*
X100965001Y-62229999D02*
X101663500Y-61531500D01*
X101663500Y-61531500D02*
X101727000Y-61468000D01*
X106368010Y-60892400D02*
X106368010Y-52774010D01*
X105728910Y-61531500D02*
X106368010Y-60892400D01*
X106368010Y-52774010D02*
X105537000Y-51943000D01*
X104584500Y-61531500D02*
X105728910Y-61531500D01*
G04 #@! TO.N,Net-(U1-Pad3)*
X60960000Y-56261000D02*
X59309000Y-57912000D01*
X99187000Y-73533000D02*
X99187000Y-71628000D01*
X99187000Y-71628000D02*
X82550000Y-71628000D01*
X82550000Y-71628000D02*
X82550000Y-75692000D01*
X82550000Y-75692000D02*
X67818000Y-75692000D01*
X67818000Y-75692000D02*
X67818000Y-75692000D01*
X60833000Y-75692000D02*
X60833000Y-74422000D01*
X59309000Y-72898000D02*
X59309000Y-65532000D01*
X60833000Y-74422000D02*
X59309000Y-72898000D01*
X59309000Y-65532000D02*
X59309000Y-65786000D01*
X59309000Y-57912000D02*
X59309000Y-65532000D01*
G04 #@! TO.N,Net-(U1-Pad4)*
X81534000Y-71628000D02*
X81534000Y-74549000D01*
X81534000Y-74549000D02*
X67818000Y-74549000D01*
X67818000Y-74549000D02*
X67818000Y-74549000D01*
X58420000Y-74422000D02*
X58547000Y-74549000D01*
X58420000Y-56134000D02*
X58420000Y-74422000D01*
G04 #@! TO.N,Net-(U1-Pad9)*
X63500000Y-56261000D02*
X65278000Y-58039000D01*
X65278000Y-58039000D02*
X65278000Y-65278000D01*
X65278000Y-65278000D02*
X64516000Y-66040000D01*
X64516000Y-66040000D02*
X64516000Y-73406000D01*
X64516000Y-73406000D02*
X64516000Y-73406000D01*
X67818000Y-73406000D02*
X80010000Y-73406000D01*
X80010000Y-73406000D02*
X80010000Y-70231000D01*
X80010000Y-70231000D02*
X91440000Y-70231000D01*
X91567000Y-70104000D02*
X91567000Y-58293000D01*
X91440000Y-70231000D02*
X91567000Y-70104000D01*
G04 #@! TO.N,Net-(U1-Pad11)*
X65740001Y-56560999D02*
X65740001Y-65704999D01*
X66040000Y-56261000D02*
X65740001Y-56560999D01*
X65740001Y-65704999D02*
X65405000Y-66040000D01*
X65405000Y-66040000D02*
X65405000Y-72517000D01*
X65405000Y-72517000D02*
X65405000Y-72517000D01*
X68707000Y-72517000D02*
X79121000Y-72517000D01*
X79121000Y-72517000D02*
X79121000Y-69342000D01*
X79121000Y-69342000D02*
X90551000Y-69342000D01*
X90551000Y-69342000D02*
X90551000Y-69342000D01*
G04 #@! TD*
M02*
