<?xml version="1.0" encoding="UTF-8" standalone="no"?>
<!-- Created with Inkscape (http://www.inkscape.org/) -->

<svg
   version="1.1"
   id="svg846"
   xml:space="preserve"
   width="1058.2679"
   height="604.724"
   viewBox="0 0 1058.2679 604.724"
   sodipodi:docname="case-v1.svg"
   inkscape:version="1.1.2 (b8e25be833, 2022-02-05)"
   xmlns:inkscape="http://www.inkscape.org/namespaces/inkscape"
   xmlns:sodipodi="http://sodipodi.sourceforge.net/DTD/sodipodi-0.dtd"
   xmlns="http://www.w3.org/2000/svg"
   xmlns:svg="http://www.w3.org/2000/svg"><defs
     id="defs850"><clipPath
       clipPathUnits="userSpaceOnUse"
       id="clipPath864"><path
         d="M 0,453.543 H 793.701 V 0 H 0 Z"
         id="path862" /></clipPath><clipPath
       clipPathUnits="userSpaceOnUse"
       id="clipPath896"><path
         d="M 0,453.543 H 793.701 V 0 H 0 Z"
         id="path894" /></clipPath><clipPath
       clipPathUnits="userSpaceOnUse"
       id="clipPath932"><path
         d="M 0,453.543 H 793.701 V 0 H 0 Z"
         id="path930" /></clipPath><clipPath
       clipPathUnits="userSpaceOnUse"
       id="clipPath976"><path
         d="M 0,453.543 H 793.701 V 0 H 0 Z"
         id="path974" /></clipPath><clipPath
       clipPathUnits="userSpaceOnUse"
       id="clipPath1020"><path
         d="M 0,453.543 H 793.701 V 0 H 0 Z"
         id="path1018" /></clipPath><clipPath
       clipPathUnits="userSpaceOnUse"
       id="clipPath1036"><path
         d="M 0,453.543 H 793.701 V 0 H 0 Z"
         id="path1034" /></clipPath><clipPath
       clipPathUnits="userSpaceOnUse"
       id="clipPath1092"><path
         d="M 0,453.543 H 793.701 V 0 H 0 Z"
         id="path1090" /></clipPath><clipPath
       clipPathUnits="userSpaceOnUse"
       id="clipPath1222"><path
         d="M 0,453.543 H 793.701 V 0 H 0 Z"
         id="path1220" /></clipPath></defs><sodipodi:namedview
     id="namedview848"
     pagecolor="#ffffff"
     bordercolor="#666666"
     borderopacity="1.0"
     inkscape:pageshadow="2"
     inkscape:pageopacity="0.0"
     inkscape:pagecheckerboard="0"
     showgrid="false"
     inkscape:zoom="0.83343732"
     inkscape:cx="529.13397"
     inkscape:cy="302.36227"
     inkscape:window-width="1625"
     inkscape:window-height="1003"
     inkscape:window-x="48"
     inkscape:window-y="18"
     inkscape:window-maximized="1"
     inkscape:current-layer="g852" /><g
     id="g852"
     inkscape:groupmode="layer"
     inkscape:label="case-v1"
     transform="matrix(1.3333333,0,0,-1.3333333,0,604.724)"><g
       id="g854"
       transform="translate(170.0801,425.1932)"><path
         d="M 0,0 V -170.08 H -141.73 V 0 h 96.37 15.59 15.6 z"
         style="fill:none;stroke:#ed1c24;stroke-width:0.283;stroke-linecap:butt;stroke-linejoin:miter;stroke-miterlimit:10;stroke-dasharray:none;stroke-opacity:1"
         id="path856" /></g><g
       id="g858"><g
         id="g860"
         clip-path="url(#clipPath864)"><g
           id="g866"
           transform="translate(29.7593,430.8739)"><path
             d="m 0,0 c 0,-3.92 -3.17,-7.09 -7.09,-7.09 -3.91,0 -7.08,3.17 -7.08,7.09 0,3.91 3.17,7.08 7.08,7.08 C -3.17,7.08 0,3.91 0,0 Z"
             style="fill:none;stroke:#ed1c24;stroke-width:0.283;stroke-linecap:butt;stroke-linejoin:miter;stroke-miterlimit:10;stroke-dasharray:none;stroke-opacity:1"
             id="path868" /></g><g
           id="g870"
           transform="translate(182.8291,430.8739)"><path
             d="m 0,0 c 0,-3.92 -3.17,-7.09 -7.09,-7.09 -3.91,0 -7.08,3.17 -7.08,7.09 0,3.91 3.17,7.08 7.08,7.08 C -3.17,7.08 0,3.91 0,0 Z"
             style="fill:none;stroke:#ed1c24;stroke-width:0.283;stroke-linecap:butt;stroke-linejoin:miter;stroke-miterlimit:10;stroke-dasharray:none;stroke-opacity:1"
             id="path872" /></g><g
           id="g874"
           transform="translate(29.7593,249.4539)"><path
             d="m 0,0 c 0,-3.91 -3.17,-7.09 -7.09,-7.09 -3.91,0 -7.08,3.18 -7.08,7.09 0,3.91 3.17,7.09 7.08,7.09 C -3.17,7.09 0,3.91 0,0 Z"
             style="fill:none;stroke:#ed1c24;stroke-width:0.283;stroke-linecap:butt;stroke-linejoin:miter;stroke-miterlimit:10;stroke-dasharray:none;stroke-opacity:1"
             id="path876" /></g><g
           id="g878"
           transform="translate(182.8291,249.4539)"><path
             d="m 0,0 c 0,-3.91 -3.17,-7.09 -7.09,-7.09 -3.91,0 -7.08,3.18 -7.08,7.09 0,3.91 3.17,7.09 7.08,7.09 C -3.17,7.09 0,3.91 0,0 Z"
             style="fill:none;stroke:#ed1c24;stroke-width:0.283;stroke-linecap:butt;stroke-linejoin:miter;stroke-miterlimit:10;stroke-dasharray:none;stroke-opacity:1"
             id="path880" /></g><g
           id="g882"
           transform="translate(192.6499,251.2733)"><path
             d="m 0,0 c 0.07,-0.6 0.1,-1.2 0.1,-1.82 0,-9.39 -7.61,-17.01 -17.01,-17.01 -1.68,0 -3.31,0.25 -4.84,0.71 -0.67,0.19 -1.32,0.43 -1.95,0.71 -4.36,1.56 -8.78,2.98 -13.27,4.25 -17.95,5.08 -36.89,7.8 -56.47,7.8 -19.58,0 -38.52,-2.72 -56.47,-7.8 -4.5,-1.27 -8.94,-2.7 -13.31,-4.27 -0.61,-0.27 -1.25,-0.5 -1.9,-0.69 -1.54,-0.46 -3.17,-0.71 -4.86,-0.71 -9.39,0 -17,7.62 -17,17.01 0,0.62 0.03,1.22 0.1,1.82 v 0.04 c 0.07,0.65 0.18,1.29 0.32,1.91 2.29,13.56 4.04,27.3 5.25,41.2 1.31,15.07 1.98,30.33 1.98,45.74 0,15.41 -0.67,30.66 -1.98,45.73 -1.21,13.91 -2.96,27.65 -5.25,41.22 -0.14,0.62 -0.25,1.25 -0.32,1.9 v 0.04 c -0.07,0.6 -0.1,1.2 -0.1,1.82 0,9.39 7.61,17 17,17 1.69,0 3.32,-0.25 4.86,-0.7 0.6,-0.18 1.19,-0.39 1.76,-0.64 0.01,-0.01 0.02,-0.02 0.03,-0.01 4.42,-1.59 8.91,-3.03 13.46,-4.32 h 81.94 v -7.09 -9.92 h 15.59 15.6 v 17.01 h 11.33 v 3.67 c 0.61,0.2 1.21,0.41 1.81,0.63 0.03,0 0.05,0.01 0.07,0.03 0.58,0.25 1.17,0.46 1.78,0.64 1.53,0.46 3.16,0.7 4.84,0.7 9.4,0 17.01,-7.61 17.01,-17 0,-0.62 -0.03,-1.22 -0.1,-1.82 v -0.04 c -0.07,-0.65 -0.18,-1.28 -0.32,-1.9 -2.29,-13.57 -4.04,-27.31 -5.25,-41.22 -1.31,-15.07 -1.98,-30.32 -1.98,-45.73 0,-15.41 0.67,-30.67 1.98,-45.74 1.21,-13.9 2.96,-27.64 5.25,-41.2 C -0.18,1.33 -0.07,0.69 0,0.04 Z"
             style="fill:none;stroke:#231f20;stroke-width:0.283;stroke-linecap:butt;stroke-linejoin:miter;stroke-miterlimit:10;stroke-dasharray:none;stroke-opacity:1"
             id="path884" /></g></g></g><text
       transform="matrix(1,0,0,-1,36.8501,266.4531)"
       style="font-variant:normal;font-weight:normal;font-stretch:normal;font-size:8.5039px;font-family:'Myriad Pro';-inkscape-font-specification:MyriadPro-Regular;writing-mode:lr-tb;fill:#6d6f71;fill-opacity:1;fill-rule:nonzero;stroke:none"
       id="text888"><tspan
         x="0 4.8387189 9.5073605 13.60624 16.301977 21.098175 22.901003 25.817841 27.620667 31.983168 33.785995 40.878246"
         y="0"
         sodipodi:role="line"
         id="tspan886">board / 1 mm</tspan></text><g
       id="g890"><g
         id="g892"
         clip-path="url(#clipPath896)"><path
           d="m 362.835,260.787 h -127.56 v 158.74 h 127.56 z"
           style="fill:none;stroke:#ed1c24;stroke-width:0.283;stroke-linecap:butt;stroke-linejoin:miter;stroke-miterlimit:10;stroke-dasharray:none;stroke-opacity:1"
           id="path898" /><g
           id="g900"
           transform="translate(228.1846,430.8739)"><path
             d="m 0,0 c 0,-3.92 -3.17,-7.09 -7.09,-7.09 -3.91,0 -7.08,3.17 -7.08,7.09 0,3.91 3.17,7.08 7.08,7.08 C -3.17,7.08 0,3.91 0,0 Z"
             style="fill:none;stroke:#ed1c24;stroke-width:0.283;stroke-linecap:butt;stroke-linejoin:miter;stroke-miterlimit:10;stroke-dasharray:none;stroke-opacity:1"
             id="path902" /></g><g
           id="g904"
           transform="translate(381.2549,430.8739)"><path
             d="m 0,0 c 0,-3.92 -3.17,-7.09 -7.091,-7.09 -3.909,0 -7.079,3.17 -7.079,7.09 0,3.91 3.17,7.08 7.079,7.08 C -3.17,7.08 0,3.91 0,0 Z"
             style="fill:none;stroke:#ed1c24;stroke-width:0.283;stroke-linecap:butt;stroke-linejoin:miter;stroke-miterlimit:10;stroke-dasharray:none;stroke-opacity:1"
             id="path906" /></g><g
           id="g908"
           transform="translate(228.1846,249.4539)"><path
             d="m 0,0 c 0,-3.91 -3.17,-7.09 -7.09,-7.09 -3.91,0 -7.08,3.18 -7.08,7.09 0,3.91 3.17,7.09 7.08,7.09 C -3.17,7.09 0,3.91 0,0 Z"
             style="fill:none;stroke:#ed1c24;stroke-width:0.283;stroke-linecap:butt;stroke-linejoin:miter;stroke-miterlimit:10;stroke-dasharray:none;stroke-opacity:1"
             id="path910" /></g><g
           id="g912"
           transform="translate(381.2549,249.4539)"><path
             d="m 0,0 c 0,-3.91 -3.17,-7.09 -7.091,-7.09 -3.909,0 -7.079,3.18 -7.079,7.09 0,3.91 3.17,7.09 7.079,7.09 C -3.17,7.09 0,3.91 0,0 Z"
             style="fill:none;stroke:#ed1c24;stroke-width:0.283;stroke-linecap:butt;stroke-linejoin:miter;stroke-miterlimit:10;stroke-dasharray:none;stroke-opacity:1"
             id="path914" /></g><g
           id="g916"
           transform="translate(391.0703,251.2733)"><path
             d="m 0,0 c 0.069,-0.6 0.1,-1.2 0.1,-1.82 0,-9.39 -7.611,-17.01 -17.01,-17.01 -1.68,0 -3.311,0.25 -4.84,0.71 -0.67,0.19 -1.32,0.43 -1.95,0.71 -4.361,1.56 -8.78,2.98 -13.271,4.25 -17.949,5.08 -36.889,7.8 -56.469,7.8 -19.581,0 -38.52,-2.72 -56.47,-7.8 -4.5,-1.27 -8.941,-2.7 -13.31,-4.27 -0.61,-0.27 -1.25,-0.5 -1.9,-0.69 -1.54,-0.46 -3.17,-0.71 -4.86,-0.71 -9.39,0 -17,7.62 -17,17.01 0,0.62 0.03,1.22 0.1,1.82 v 0.04 c 0.069,0.65 0.18,1.29 0.319,1.91 2.29,13.56 4.04,27.3 5.25,41.2 1.311,15.07 1.981,30.33 1.981,45.74 0,15.41 -0.67,30.66 -1.981,45.73 -1.21,13.91 -2.96,27.65 -5.25,41.22 -0.139,0.62 -0.25,1.25 -0.319,1.9 v 0.04 c -0.07,0.6 -0.1,1.2 -0.1,1.82 0,9.39 7.61,17 17,17 1.69,0 3.32,-0.25 4.86,-0.7 0.599,-0.18 1.19,-0.39 1.76,-0.64 0.009,-0.01 0.02,-0.02 0.03,-0.01 4.42,-1.59 8.91,-3.03 13.46,-4.32 h 81.95 v -8.5 -8.51 h 15.59 15.59 v 17.01 h 11.33 v 3.67 c 0.609,0.2 1.21,0.41 1.809,0.63 0.031,0 0.05,0.01 0.071,0.03 0.58,0.25 1.17,0.46 1.78,0.64 1.529,0.46 3.16,0.7 4.84,0.7 9.399,0 17.01,-7.61 17.01,-17 0,-0.62 -0.031,-1.22 -0.1,-1.82 v -0.04 c -0.07,-0.65 -0.181,-1.28 -0.32,-1.9 -2.29,-13.57 -4.04,-27.31 -5.25,-41.22 -1.31,-15.07 -1.981,-30.32 -1.981,-45.73 0,-15.41 0.671,-30.67 1.981,-45.74 1.21,-13.9 2.96,-27.64 5.25,-41.2 C -0.181,1.33 -0.07,0.69 0,0.04 Z"
             style="fill:none;stroke:#231f20;stroke-width:0.283;stroke-linecap:butt;stroke-linejoin:miter;stroke-miterlimit:10;stroke-dasharray:none;stroke-opacity:1"
             id="path918" /></g></g></g><text
       transform="matrix(1,0,0,-1,238.1104,269.2881)"
       style="font-variant:normal;font-weight:normal;font-stretch:normal;font-size:8.5039px;font-family:'Myriad Pro';-inkscape-font-specification:MyriadPro-Regular;writing-mode:lr-tb;fill:#6d6f71;fill-opacity:1;fill-rule:nonzero;stroke:none"
       id="text924"><tspan
         x="0 4.7961998 6.7861123 10.153657 14.992375 16.999296 21.030146 25.000616 27.611313 31.973814 33.776642 36.693478 38.496304 42.858807 44.661633 51.753883"
         y="0"
         sodipodi:role="line"
         id="tspan920">display-1 / 1 mm</tspan><tspan
         x="-195.58971 -190.7935 -188.80359 -185.43605 -180.59732 -178.59041 -174.55956 -170.58908 -167.97839 -163.61589 -161.81306 -158.89622 -157.0934 -152.7309 -150.92807 -143.83582"
         y="226.765"
         sodipodi:role="line"
         id="tspan922">display-2 / 3 mm</tspan></text><g
       id="g926"><g
         id="g928"
         clip-path="url(#clipPath932)"><g
           id="g934"
           transform="translate(354.3301,425.1932)"><path
             d="M 0,0 V 17.01"
             style="fill:none;stroke:#231f20;stroke-width:0.283;stroke-linecap:butt;stroke-linejoin:miter;stroke-miterlimit:10;stroke-dasharray:none;stroke-opacity:1"
             id="path936" /></g><g
           id="g938"
           transform="translate(323.1494,425.1966)"><path
             d="M 0,0 H 15.591 31.182 15.591 Z"
             style="fill:none;stroke:#231f20;stroke-width:0.283;stroke-linecap:butt;stroke-linejoin:miter;stroke-miterlimit:10;stroke-dasharray:none;stroke-opacity:1"
             id="path940" /></g><g
           id="g942"
           transform="translate(323.1494,433.701)"><path
             d="M 0,0 V -8.504 0 8.504 Z"
             style="fill:none;stroke:#231f20;stroke-width:0.283;stroke-linecap:butt;stroke-linejoin:miter;stroke-miterlimit:10;stroke-dasharray:none;stroke-opacity:1"
             id="path944" /></g><g
           id="g946"
           transform="translate(155.9102,425.1932)"><path
             d="M 0,0 V 17.01"
             style="fill:none;stroke:#231f20;stroke-width:0.283;stroke-linecap:butt;stroke-linejoin:miter;stroke-miterlimit:10;stroke-dasharray:none;stroke-opacity:1"
             id="path948" /></g><g
           id="g950"
           transform="translate(124.7246,425.1966)"><path
             d="M 0,0 H 15.59 31.181 15.59 Z"
             style="fill:none;stroke:#231f20;stroke-width:0.283;stroke-linecap:butt;stroke-linejoin:miter;stroke-miterlimit:10;stroke-dasharray:none;stroke-opacity:1"
             id="path952" /></g><g
           id="g954"
           transform="translate(124.7202,425.1932)"><path
             d="m 0,0 v 9.92 7.09"
             style="fill:none;stroke:#231f20;stroke-width:0.283;stroke-linecap:butt;stroke-linejoin:miter;stroke-miterlimit:10;stroke-dasharray:none;stroke-opacity:1"
             id="path956" /></g><g
           id="g958"
           transform="translate(589.5,251.2733)"><path
             d="m 0,0 c 0.07,-0.6 0.1,-1.2 0.1,-1.82 0,-9.39 -7.61,-17.01 -17.01,-17.01 -1.68,0 -3.31,0.25 -4.84,0.71 -0.67,0.19 -1.32,0.43 -1.95,0.71 -4.36,1.56 -8.78,2.98 -13.27,4.25 -17.95,5.08 -36.89,7.8 -56.47,7.8 -19.58,0 -38.52,-2.72 -56.47,-7.8 -4.5,-1.27 -8.94,-2.7 -13.31,-4.27 -0.61,-0.27 -1.25,-0.5 -1.9,-0.69 -1.54,-0.46 -3.17,-0.71 -4.86,-0.71 -9.39,0 -17,7.62 -17,17.01 0,0.62 0.03,1.22 0.1,1.82 v 0.04 c 0.07,0.65 0.18,1.29 0.32,1.91 2.29,13.56 4.04,27.3 5.25,41.2 1.31,15.07 1.98,30.33 1.98,45.74 0,15.41 -0.67,30.66 -1.98,45.73 -1.21,13.91 -2.96,27.65 -5.25,41.22 -0.14,0.62 -0.25,1.25 -0.32,1.9 v 0.04 c -0.07,0.6 -0.1,1.2 -0.1,1.82 0,9.39 7.61,17 17,17 1.69,0 3.32,-0.25 4.86,-0.7 0.6,-0.18 1.19,-0.39 1.76,-0.64 0.01,-0.01 0.02,-0.02 0.03,-0.01 4.42,-1.59 8.91,-3.03 13.46,-4.32 h 81.94 v -11.34 -11.34 h 15.6 15.59 v 11.34 11.34 h 11.33 v 3.67 c 0.61,0.2 1.21,0.41 1.81,0.63 0.03,0 0.05,0.01 0.07,0.03 0.58,0.25 1.17,0.46 1.78,0.64 1.53,0.46 3.16,0.7 4.84,0.7 9.4,0 17.01,-7.61 17.01,-17 0,-0.62 -0.03,-1.22 -0.1,-1.82 v -0.04 c -0.07,-0.65 -0.18,-1.28 -0.32,-1.9 -2.29,-13.57 -4.04,-27.31 -5.25,-41.22 -1.31,-15.07 -1.98,-30.32 -1.98,-45.73 0,-15.41 0.67,-30.67 1.98,-45.74 1.21,-13.9 2.96,-27.64 5.25,-41.2 C -0.18,1.33 -0.07,0.69 0,0.04 Z"
             style="fill:none;stroke:#231f20;stroke-width:0.283;stroke-linecap:butt;stroke-linejoin:miter;stroke-miterlimit:10;stroke-dasharray:none;stroke-opacity:1"
             id="path960" /></g><g
           id="g962"
           transform="translate(391.0742,24.5023)"><path
             d="m 0,0 c 0.07,-0.6 0.101,-1.2 0.101,-1.82 0,-9.39 -7.611,-17.01 -17.011,-17.01 -1.68,0 -3.31,0.25 -4.84,0.71 -0.67,0.19 -1.319,0.431 -1.95,0.71 -4.36,1.56 -8.779,2.98 -13.27,4.25 -17.95,5.08 -36.889,7.8 -56.47,7.8 -2.85,0 -5.69,-0.06 -8.51,-0.18 V 9.51 h -36.85 v -19.86 c -3.74,-0.839 -7.45,-1.77 -11.11,-2.81 -4.5,-1.27 -8.94,-2.7 -13.31,-4.27 -0.61,-0.27 -1.25,-0.5 -1.9,-0.69 -1.54,-0.46 -3.17,-0.71 -4.859,-0.71 -9.391,0 -17,7.62 -17,17.01 0,0.62 0.029,1.22 0.099,1.82 v 0.04 c 0.07,0.65 0.18,1.29 0.32,1.91 2.29,13.56 4.04,27.3 5.25,41.2 1.31,15.07 1.98,30.33 1.98,45.74 0,15.41 -0.67,30.66 -1.98,45.73 -1.21,13.91 -2.96,27.65 -5.25,41.22 -0.14,0.62 -0.25,1.25 -0.32,1.9 v 0.04 c -0.07,0.6 -0.099,1.2 -0.099,1.82 0,9.39 7.609,17 17,17 1.689,0 3.319,-0.25 4.859,-0.7 0.6,-0.18 1.19,-0.39 1.76,-0.64 0.01,-0.01 0.02,-0.02 0.03,-0.01 4.42,-1.59 8.91,-3.03 13.46,-4.32 h 59.261 v -22.68 h 11.339 v 22.68 h 11.34 v -17.01 h 31.18 v 17.01 h 11.34 v 3.67 c 0.61,0.2 1.21,0.41 1.81,0.63 0.031,0 0.05,0.01 0.071,0.03 0.579,0.25 1.17,0.46 1.779,0.64 1.53,0.46 3.16,0.7 4.84,0.7 9.4,0 17.011,-7.61 17.011,-17 0,-0.62 -0.031,-1.22 -0.101,-1.82 v -0.04 c -0.069,-0.65 -0.18,-1.28 -0.319,-1.9 -2.29,-13.57 -4.04,-27.31 -5.25,-41.22 C -6.88,119.55 -7.55,104.3 -7.55,88.89 c 0,-15.41 0.67,-30.67 1.981,-45.74 1.21,-13.9 2.96,-27.64 5.25,-41.2 C -0.18,1.33 -0.069,0.69 0,0.04 Z"
             style="fill:none;stroke:#231f20;stroke-width:0.283;stroke-linecap:butt;stroke-linejoin:miter;stroke-miterlimit:10;stroke-dasharray:none;stroke-opacity:1"
             id="path964" /></g></g></g><text
       transform="matrix(1,0,0,-1,436.5356,269.2881)"
       style="font-variant:normal;font-weight:normal;font-stretch:normal;font-size:8.5039px;font-family:'Myriad Pro';-inkscape-font-specification:MyriadPro-Regular;writing-mode:lr-tb;fill:#6d6f71;fill-opacity:1;fill-rule:nonzero;stroke:none"
       id="text968"><tspan
         x="0 4.8387189 8.9375992 12.747346 16.650637 19.261333 23.623835 25.426661 28.343498 30.146326 34.508827 36.311653 43.403904"
         y="0"
         sodipodi:role="line"
         id="tspan966">back-1 / 1 mm</tspan></text><g
       id="g970"><g
         id="g972"
         clip-path="url(#clipPath976)"><g
           id="g978"
           transform="translate(426.6133,430.8724)"><path
             d="m 0,0 c 0,-3.92 -3.17,-7.09 -7.09,-7.09 -3.91,0 -7.08,3.17 -7.08,7.09 0,3.91 3.17,7.08 7.08,7.08 C -3.17,7.08 0,3.91 0,0 Z"
             style="fill:none;stroke:#ed1c24;stroke-width:0.283;stroke-linecap:butt;stroke-linejoin:miter;stroke-miterlimit:10;stroke-dasharray:none;stroke-opacity:1"
             id="path980" /></g><g
           id="g982"
           transform="translate(579.6826,430.8724)"><path
             d="m 0,0 c 0,-3.92 -3.17,-7.09 -7.09,-7.09 -3.91,0 -7.08,3.17 -7.08,7.09 0,3.91 3.17,7.08 7.08,7.08 C -3.17,7.08 0,3.91 0,0 Z"
             style="fill:none;stroke:#ed1c24;stroke-width:0.283;stroke-linecap:butt;stroke-linejoin:miter;stroke-miterlimit:10;stroke-dasharray:none;stroke-opacity:1"
             id="path984" /></g><g
           id="g986"
           transform="translate(426.6133,249.4525)"><path
             d="m 0,0 c 0,-3.91 -3.17,-7.09 -7.09,-7.09 -3.91,0 -7.08,3.18 -7.08,7.09 0,3.91 3.17,7.09 7.08,7.09 C -3.17,7.09 0,3.91 0,0 Z"
             style="fill:none;stroke:#ed1c24;stroke-width:0.283;stroke-linecap:butt;stroke-linejoin:miter;stroke-miterlimit:10;stroke-dasharray:none;stroke-opacity:1"
             id="path988" /></g><g
           id="g990"
           transform="translate(579.6826,249.4525)"><path
             d="m 0,0 c 0,-3.91 -3.17,-7.09 -7.09,-7.09 -3.91,0 -7.08,3.18 -7.08,7.09 0,3.91 3.17,7.09 7.08,7.09 C -3.17,7.09 0,3.91 0,0 Z"
             style="fill:none;stroke:#ed1c24;stroke-width:0.283;stroke-linecap:butt;stroke-linejoin:miter;stroke-miterlimit:10;stroke-dasharray:none;stroke-opacity:1"
             id="path992" /></g><g
           id="g994"
           transform="translate(561.2598,419.5277)"><path
             d="M 0,0 V -158.74 H -130.394 V 0 h 88.663 14.342 14.353 z"
             style="fill:none;stroke:#ed1c24;stroke-width:0.283;stroke-linecap:butt;stroke-linejoin:miter;stroke-miterlimit:10;stroke-dasharray:none;stroke-opacity:1"
             id="path996" /></g><g
           id="g998"
           transform="translate(552.7559,430.8661)"><path
             d="M 0,0 V -11.338 0 11.339 Z"
             style="fill:none;stroke:#231f20;stroke-width:0.283;stroke-linecap:butt;stroke-linejoin:miter;stroke-miterlimit:10;stroke-dasharray:none;stroke-opacity:1"
             id="path1000" /></g><g
           id="g1002"
           transform="translate(521.5752,430.8661)"><path
             d="M 0,0 V -11.338 0 11.339 Z"
             style="fill:none;stroke:#231f20;stroke-width:0.283;stroke-linecap:butt;stroke-linejoin:miter;stroke-miterlimit:10;stroke-dasharray:none;stroke-opacity:1"
             id="path1004" /></g><g
           id="g1006"
           transform="translate(521.5752,419.5277)"><path
             d="M 0,0 H 15.59 31.181 15.59 Z"
             style="fill:none;stroke:#231f20;stroke-width:0.283;stroke-linecap:butt;stroke-linejoin:miter;stroke-miterlimit:10;stroke-dasharray:none;stroke-opacity:1"
             id="path1008" /></g></g></g><text
       transform="matrix(1,0,0,-1,238.1055,42.5171)"
       style="font-variant:normal;font-weight:normal;font-stretch:normal;font-size:8.5039px;font-family:'Myriad Pro';-inkscape-font-specification:MyriadPro-Regular;writing-mode:lr-tb;fill:#6d6f71;fill-opacity:1;fill-rule:nonzero;stroke:none"
       id="text1012"><tspan
         x="0 4.8387189 8.9375992 12.747346 16.650637 19.261333 23.623835 25.426661 28.343498 30.146326 34.508827 36.311653 43.403904"
         y="0"
         sodipodi:role="line"
         id="tspan1010">back-2 / 3 mm</tspan></text><g
       id="g1014"><g
         id="g1016"
         clip-path="url(#clipPath1020)"><g
           id="g1022"
           transform="translate(589.4941,24.5023)"><path
             d="m 0,0 c 0.07,-0.6 0.101,-1.2 0.101,-1.82 0,-9.39 -7.611,-17.01 -17.01,-17.01 -1.681,0 -3.311,0.25 -4.841,0.71 -0.67,0.19 -1.319,0.431 -1.949,0.71 -4.361,1.56 -8.78,2.98 -13.271,4.25 -17.95,5.08 -36.889,7.8 -56.469,7.8 -2.851,0 -5.681,-0.06 -8.5,-0.18 V 9.51 h -36.851 v -19.86 c -3.739,-0.83 -7.449,-1.77 -11.119,-2.81 -4.5,-1.27 -8.941,-2.7 -13.311,-4.27 -0.61,-0.27 -1.25,-0.5 -1.9,-0.69 -1.539,-0.46 -3.17,-0.71 -4.859,-0.71 -9.391,0 -17,7.62 -17,17.01 0,0.62 0.03,1.22 0.099,1.82 v 0.04 c 0.07,0.65 0.181,1.29 0.32,1.91 2.29,13.56 4.04,27.3 5.25,41.2 1.31,15.07 1.98,30.33 1.98,45.74 0,15.41 -0.67,30.66 -1.98,45.73 -1.21,13.91 -2.96,27.65 -5.25,41.22 -0.139,0.62 -0.25,1.25 -0.32,1.9 v 0.04 c -0.069,0.6 -0.099,1.2 -0.099,1.82 0,9.39 7.609,17 17,17 1.689,0 3.32,-0.25 4.859,-0.7 0.6,-0.18 1.19,-0.39 1.761,-0.64 0.009,-0.01 0.019,-0.02 0.029,-0.01 4.421,-1.59 8.91,-3.03 13.46,-4.32 h 124.461 v 3.67 c 0.609,0.2 1.21,0.41 1.809,0.63 0.031,0 0.05,0.01 0.071,0.03 0.58,0.25 1.17,0.46 1.779,0.64 1.53,0.46 3.16,0.7 4.841,0.7 9.399,0 17.01,-7.61 17.01,-17 0,-0.62 -0.031,-1.22 -0.101,-1.82 v -0.04 c -0.069,-0.65 -0.18,-1.28 -0.319,-1.9 -2.29,-13.57 -4.04,-27.31 -5.25,-41.22 C -6.88,119.55 -7.55,104.3 -7.55,88.89 c 0,-15.41 0.67,-30.67 1.981,-45.74 1.21,-13.9 2.96,-27.64 5.25,-41.2 C -0.18,1.33 -0.069,0.69 0,0.04 Z"
             style="fill:none;stroke:#231f20;stroke-width:0.283;stroke-linecap:butt;stroke-linejoin:miter;stroke-miterlimit:10;stroke-dasharray:none;stroke-opacity:1"
             id="path1024" /></g></g></g><text
       transform="matrix(1,0,0,-1,436.5239,42.52)"
       style="font-variant:normal;font-weight:normal;font-stretch:normal;font-size:8.5039px;font-family:'Myriad Pro';-inkscape-font-specification:MyriadPro-Regular;writing-mode:lr-tb;fill:#6d6f71;fill-opacity:1;fill-rule:nonzero;stroke:none"
       id="text1028"><tspan
         x="0 4.8387189 8.9375992 12.747346 16.650637 19.261333 23.623835 25.426661 28.343498 30.146326 34.508827 36.311653 43.403904"
         y="0"
         sodipodi:role="line"
         id="tspan1026">back-3 / 3 mm</tspan></text><g
       id="g1030"><g
         id="g1032"
         clip-path="url(#clipPath1036)"><g
           id="g1038"
           transform="translate(362.835,192.7523)"><path
             d="M 0,0 V -158.74 H -130.4 V 0 h 88.66 14.349 14.351 z"
             style="fill:none;stroke:#ed1c24;stroke-width:0.283;stroke-linecap:butt;stroke-linejoin:miter;stroke-miterlimit:10;stroke-dasharray:none;stroke-opacity:1"
             id="path1040" /></g><g
           id="g1042"
           transform="translate(354.3242,198.4222)"><path
             d="M 0,0 V 17.01"
             style="fill:none;stroke:#231f20;stroke-width:0.283;stroke-linecap:butt;stroke-linejoin:miter;stroke-miterlimit:10;stroke-dasharray:none;stroke-opacity:1"
             id="path1044" /></g><g
           id="g1046"
           transform="translate(323.1445,198.4222)"><path
             d="M 0,0 V 17.01"
             style="fill:none;stroke:#231f20;stroke-width:0.283;stroke-linecap:butt;stroke-linejoin:miter;stroke-miterlimit:10;stroke-dasharray:none;stroke-opacity:1"
             id="path1048" /></g><g
           id="g1050"
           transform="translate(354.3242,198.4222)"><path
             d="M 0,0 H -31.18"
             style="fill:none;stroke:#231f20;stroke-width:0.283;stroke-linecap:butt;stroke-linejoin:miter;stroke-miterlimit:10;stroke-dasharray:none;stroke-opacity:1"
             id="path1052" /></g><g
           id="g1054"
           transform="translate(252.2744,14.1527)"><path
             d="M 0,0 V 14.189"
             style="fill:none;stroke:#231f20;stroke-width:0.283;stroke-linecap:butt;stroke-linejoin:miter;stroke-miterlimit:10;stroke-dasharray:none;stroke-opacity:1"
             id="path1056" /></g><g
           id="g1058"
           transform="translate(289.1245,18.9622)"><path
             d="M 0,0 V 9.38"
             style="fill:none;stroke:#231f20;stroke-width:0.283;stroke-linecap:butt;stroke-linejoin:miter;stroke-miterlimit:10;stroke-dasharray:none;stroke-opacity:1"
             id="path1060" /></g><g
           id="g1062"
           transform="translate(252.2744,28.3421)"><path
             d="M 0,0 V 5.67"
             style="fill:none;stroke:#231f20;stroke-width:0.283;stroke-linecap:butt;stroke-linejoin:miter;stroke-miterlimit:10;stroke-dasharray:none;stroke-opacity:1"
             id="path1064" /></g><g
           id="g1066"
           transform="translate(289.1245,28.3421)"><path
             d="M 0,0 V 5.67"
             style="fill:none;stroke:#231f20;stroke-width:0.283;stroke-linecap:butt;stroke-linejoin:miter;stroke-miterlimit:10;stroke-dasharray:none;stroke-opacity:1"
             id="path1068" /></g><g
           id="g1070"
           transform="translate(289.1245,34.0125)"><path
             d="M 0,0 H -36.85"
             style="fill:none;stroke:#231f20;stroke-width:0.283;stroke-linecap:butt;stroke-linejoin:miter;stroke-miterlimit:10;stroke-dasharray:none;stroke-opacity:1"
             id="path1072" /></g><g
           id="g1074"
           transform="translate(561.2646,192.7523)"><path
             d="M 0,0 V -158.74 H -130.4 V 0 h 88.66 14.349 14.351 z"
             style="fill:none;stroke:#ed1c24;stroke-width:0.283;stroke-linecap:butt;stroke-linejoin:miter;stroke-miterlimit:10;stroke-dasharray:none;stroke-opacity:1"
             id="path1076" /></g><g
           id="g1078"
           transform="translate(787.9297,251.2733)"><path
             d="m 0,0 c 0.07,-0.6 0.101,-1.2 0.101,-1.82 0,-9.39 -7.611,-17.01 -17.011,-17.01 -1.68,0 -3.31,0.25 -4.84,0.71 -0.67,0.19 -1.319,0.43 -1.949,0.71 -4.361,1.56 -8.78,2.98 -13.271,4.25 -17.95,5.08 -36.889,7.8 -56.469,7.8 -2.851,0 -5.691,-0.06 -8.51,-0.18 V 9.51 H -138.8 v -19.86 c -3.74,-0.84 -7.45,-1.77 -11.11,-2.81 -4.5,-1.27 -8.94,-2.7 -13.31,-4.27 -0.61,-0.27 -1.25,-0.5 -1.9,-0.69 -1.54,-0.46 -3.17,-0.71 -4.859,-0.71 -9.391,0 -17,7.62 -17,17.01 0,0.62 0.03,1.22 0.099,1.82 v 0.04 c 0.07,0.65 0.181,1.29 0.32,1.91 2.29,13.56 4.04,27.3 5.25,41.2 1.31,15.07 1.98,30.33 1.98,45.74 0,15.41 -0.67,30.66 -1.98,45.73 -1.21,13.91 -2.96,27.65 -5.25,41.22 -0.139,0.62 -0.25,1.25 -0.32,1.9 v 0.04 c -0.069,0.6 -0.099,1.2 -0.099,1.82 0,9.39 7.609,17 17,17 1.689,0 3.319,-0.25 4.859,-0.7 0.6,-0.18 1.19,-0.39 1.761,-0.64 0.009,-0.01 0.019,-0.02 0.029,-0.01 4.42,-1.59 8.91,-3.03 13.46,-4.32 h 124.46 v 3.67 c 0.61,0.2 1.211,0.41 1.81,0.63 0.031,0 0.05,0.01 0.071,0.03 0.58,0.25 1.17,0.46 1.779,0.64 1.53,0.46 3.16,0.7 4.84,0.7 9.4,0 17.011,-7.61 17.011,-17 0,-0.62 -0.031,-1.22 -0.101,-1.82 v -0.04 c -0.069,-0.65 -0.18,-1.28 -0.319,-1.9 -2.29,-13.57 -4.04,-27.31 -5.25,-41.22 C -6.88,119.55 -7.55,104.3 -7.55,88.89 c 0,-15.41 0.67,-30.67 1.981,-45.74 1.21,-13.9 2.96,-27.64 5.25,-41.2 C -0.18,1.33 -0.069,0.69 0,0.04 Z"
             style="fill:none;stroke:#231f20;stroke-width:0.283;stroke-linecap:butt;stroke-linejoin:miter;stroke-miterlimit:10;stroke-dasharray:none;stroke-opacity:1"
             id="path1080" /></g></g></g><text
       transform="matrix(1,0,0,-1,632.1328,269.291)"
       style="font-variant:normal;font-weight:normal;font-stretch:normal;font-size:8.5039px;font-family:'Myriad Pro';-inkscape-font-specification:MyriadPro-Regular;writing-mode:lr-tb;fill:#6d6f71;fill-opacity:1;fill-rule:nonzero;stroke:none"
       id="text1084"><tspan
         x="0 4.8387189 8.9375992 12.747346 16.650637 19.414404 23.173128 27.782242 31.787579 36.048031 38.828808 40.631634 43.548473 45.351299 49.713799 51.516624 58.608879"
         y="0"
         sodipodi:role="line"
         id="tspan1082">back-cover / 1 mm</tspan></text><g
       id="g1086"><g
         id="g1088"
         clip-path="url(#clipPath1092)"><g
           id="g1094"
           transform="translate(450.7041,14.1527)"><path
             d="M 0,0 V 19.86"
             style="fill:none;stroke:#231f20;stroke-width:0.283;stroke-linecap:butt;stroke-linejoin:miter;stroke-miterlimit:10;stroke-dasharray:none;stroke-opacity:1"
             id="path1096" /></g><g
           id="g1098"
           transform="translate(487.5547,18.9622)"><path
             d="M 0,0 V 15.05"
             style="fill:none;stroke:#231f20;stroke-width:0.283;stroke-linecap:butt;stroke-linejoin:miter;stroke-miterlimit:10;stroke-dasharray:none;stroke-opacity:1"
             id="path1100" /></g><g
           id="g1102"
           transform="translate(487.5547,34.0125)"><path
             d="M 0,0 H -36.851"
             style="fill:none;stroke:#231f20;stroke-width:0.283;stroke-linecap:butt;stroke-linejoin:miter;stroke-miterlimit:10;stroke-dasharray:none;stroke-opacity:1"
             id="path1104" /></g><g
           id="g1106"
           transform="translate(228.187,204.1019)"><path
             d="m 0,0 c 0,-3.92 -3.17,-7.09 -7.09,-7.09 -3.91,0 -7.08,3.17 -7.08,7.09 0,3.91 3.17,7.08 7.08,7.08 C -3.17,7.08 0,3.91 0,0 Z"
             style="fill:none;stroke:#ed1c24;stroke-width:0.283;stroke-linecap:butt;stroke-linejoin:miter;stroke-miterlimit:10;stroke-dasharray:none;stroke-opacity:1"
             id="path1108" /></g><g
           id="g1110"
           transform="translate(381.2568,204.1019)"><path
             d="m 0,0 c 0,-3.92 -3.17,-7.09 -7.09,-7.09 -3.91,0 -7.08,3.17 -7.08,7.09 0,3.91 3.17,7.08 7.08,7.08 C -3.17,7.08 0,3.91 0,0 Z"
             style="fill:none;stroke:#ed1c24;stroke-width:0.283;stroke-linecap:butt;stroke-linejoin:miter;stroke-miterlimit:10;stroke-dasharray:none;stroke-opacity:1"
             id="path1112" /></g><g
           id="g1114"
           transform="translate(228.187,22.682)"><path
             d="m 0,0 c 0,-3.91 -3.17,-7.09 -7.09,-7.09 -3.91,0 -7.08,3.18 -7.08,7.09 0,3.91 3.17,7.09 7.08,7.09 C -3.17,7.09 0,3.91 0,0 Z"
             style="fill:none;stroke:#ed1c24;stroke-width:0.283;stroke-linecap:butt;stroke-linejoin:miter;stroke-miterlimit:10;stroke-dasharray:none;stroke-opacity:1"
             id="path1116" /></g><g
           id="g1118"
           transform="translate(381.2568,22.682)"><path
             d="m 0,0 c 0,-3.91 -3.17,-7.09 -7.09,-7.09 -3.91,0 -7.08,3.18 -7.08,7.09 0,3.91 3.17,7.09 7.08,7.09 C -3.17,7.09 0,3.91 0,0 Z"
             style="fill:none;stroke:#ed1c24;stroke-width:0.283;stroke-linecap:butt;stroke-linejoin:miter;stroke-miterlimit:10;stroke-dasharray:none;stroke-opacity:1"
             id="path1120" /></g><g
           id="g1122"
           transform="translate(426.6055,204.1019)"><path
             d="m 0,0 c 0,-3.92 -3.17,-7.09 -7.09,-7.09 -3.91,0 -7.08,3.17 -7.08,7.09 0,3.91 3.17,7.08 7.08,7.08 C -3.17,7.08 0,3.91 0,0 Z"
             style="fill:none;stroke:#ed1c24;stroke-width:0.283;stroke-linecap:butt;stroke-linejoin:miter;stroke-miterlimit:10;stroke-dasharray:none;stroke-opacity:1"
             id="path1124" /></g><g
           id="g1126"
           transform="translate(579.6758,204.1019)"><path
             d="m 0,0 c 0,-3.92 -3.17,-7.09 -7.09,-7.09 -3.91,0 -7.08,3.17 -7.08,7.09 0,3.91 3.17,7.08 7.08,7.08 C -3.17,7.08 0,3.91 0,0 Z"
             style="fill:none;stroke:#ed1c24;stroke-width:0.283;stroke-linecap:butt;stroke-linejoin:miter;stroke-miterlimit:10;stroke-dasharray:none;stroke-opacity:1"
             id="path1128" /></g><g
           id="g1130"
           transform="translate(426.6055,22.682)"><path
             d="m 0,0 c 0,-3.91 -3.17,-7.09 -7.09,-7.09 -3.91,0 -7.08,3.18 -7.08,7.09 0,3.91 3.17,7.09 7.08,7.09 C -3.17,7.09 0,3.91 0,0 Z"
             style="fill:none;stroke:#ed1c24;stroke-width:0.283;stroke-linecap:butt;stroke-linejoin:miter;stroke-miterlimit:10;stroke-dasharray:none;stroke-opacity:1"
             id="path1132" /></g><g
           id="g1134"
           transform="translate(579.6758,22.682)"><path
             d="m 0,0 c 0,-3.91 -3.17,-7.09 -7.09,-7.09 -3.91,0 -7.08,3.18 -7.08,7.09 0,3.91 3.17,7.09 7.08,7.09 C -3.17,7.09 0,3.91 0,0 Z"
             style="fill:none;stroke:#ed1c24;stroke-width:0.283;stroke-linecap:butt;stroke-linejoin:miter;stroke-miterlimit:10;stroke-dasharray:none;stroke-opacity:1"
             id="path1136" /></g><g
           id="g1138"
           transform="translate(625.043,430.8758)"><path
             d="m 0,0 c 0,-3.92 -3.17,-7.09 -7.09,-7.09 -3.91,0 -7.08,3.17 -7.08,7.09 0,3.91 3.17,7.08 7.08,7.08 C -3.17,7.08 0,3.91 0,0 Z"
             style="fill:none;stroke:#ed1c24;stroke-width:0.283;stroke-linecap:butt;stroke-linejoin:miter;stroke-miterlimit:10;stroke-dasharray:none;stroke-opacity:1"
             id="path1140" /></g><g
           id="g1142"
           transform="translate(778.1123,430.8758)"><path
             d="m 0,0 c 0,-3.92 -3.17,-7.09 -7.09,-7.09 -3.91,0 -7.08,3.17 -7.08,7.09 0,3.91 3.17,7.08 7.08,7.08 C -3.17,7.08 0,3.91 0,0 Z"
             style="fill:none;stroke:#ed1c24;stroke-width:0.283;stroke-linecap:butt;stroke-linejoin:miter;stroke-miterlimit:10;stroke-dasharray:none;stroke-opacity:1"
             id="path1144" /></g><g
           id="g1146"
           transform="translate(625.043,249.4559)"><path
             d="m 0,0 c 0,-3.91 -3.17,-7.09 -7.09,-7.09 -3.91,0 -7.08,3.18 -7.08,7.09 0,3.91 3.17,7.09 7.08,7.09 C -3.17,7.09 0,3.91 0,0 Z"
             style="fill:none;stroke:#ed1c24;stroke-width:0.283;stroke-linecap:butt;stroke-linejoin:miter;stroke-miterlimit:10;stroke-dasharray:none;stroke-opacity:1"
             id="path1148" /></g><g
           id="g1150"
           transform="translate(778.1123,249.4559)"><path
             d="m 0,0 c 0,-3.91 -3.17,-7.09 -7.09,-7.09 -3.91,0 -7.08,3.18 -7.08,7.09 0,3.91 3.17,7.09 7.08,7.09 C -3.17,7.09 0,3.91 0,0 Z"
             style="fill:none;stroke:#ed1c24;stroke-width:0.283;stroke-linecap:butt;stroke-linejoin:miter;stroke-miterlimit:10;stroke-dasharray:none;stroke-opacity:1"
             id="path1152" /></g><g
           id="g1154"
           transform="translate(737.0146,388.3495)"><path
             d="m 0,0 c 0,-18.786 -15.229,-34.016 -34.016,-34.016 -18.787,0 -34.015,15.23 -34.015,34.016 0,18.787 15.228,34.016 34.015,34.016 C -15.229,34.016 0,18.787 0,0 Z"
             style="fill:none;stroke:#ed1c24;stroke-width:0.283;stroke-linecap:butt;stroke-linejoin:miter;stroke-miterlimit:10;stroke-dasharray:none;stroke-opacity:1"
             id="path1156" /></g><g
           id="g1158"
           transform="translate(311.8047,192.7523)"><path
             d="M 0,0 V 22.68"
             style="fill:none;stroke:#231f20;stroke-width:0.283;stroke-linecap:butt;stroke-linejoin:miter;stroke-miterlimit:10;stroke-dasharray:none;stroke-opacity:1"
             id="path1160" /></g><g
           id="g1162"
           transform="translate(300.4648,192.7523)"><path
             d="M 0,0 V 22.68"
             style="fill:none;stroke:#231f20;stroke-width:0.283;stroke-linecap:butt;stroke-linejoin:miter;stroke-miterlimit:10;stroke-dasharray:none;stroke-opacity:1"
             id="path1164" /></g><g
           id="g1166"
           transform="translate(311.8047,192.7523)"><path
             d="M 0,0 H -11.34"
             style="fill:none;stroke:#231f20;stroke-width:0.283;stroke-linecap:butt;stroke-linejoin:miter;stroke-miterlimit:10;stroke-dasharray:none;stroke-opacity:1"
             id="path1168" /></g><path
           d="M 164.42,34.014 H 36.861 v 158.74 H 164.42 Z"
           style="fill:none;stroke:#ed1c24;stroke-width:0.283;stroke-linecap:butt;stroke-linejoin:miter;stroke-miterlimit:10;stroke-dasharray:none;stroke-opacity:1"
           id="path1170" /><g
           id="g1172"
           transform="translate(29.7705,204.0999)"><path
             d="m 0,0 c 0,-3.92 -3.17,-7.09 -7.09,-7.09 -3.91,0 -7.08,3.17 -7.08,7.09 0,3.91 3.17,7.08 7.08,7.08 C -3.17,7.08 0,3.91 0,0 Z"
             style="fill:none;stroke:#ed1c24;stroke-width:0.283;stroke-linecap:butt;stroke-linejoin:miter;stroke-miterlimit:10;stroke-dasharray:none;stroke-opacity:1"
             id="path1174" /></g><g
           id="g1176"
           transform="translate(182.8403,204.0999)"><path
             d="m 0,0 c 0,-3.92 -3.17,-7.09 -7.09,-7.09 -3.91,0 -7.08,3.17 -7.08,7.09 0,3.91 3.17,7.08 7.08,7.08 C -3.17,7.08 0,3.91 0,0 Z"
             style="fill:none;stroke:#ed1c24;stroke-width:0.283;stroke-linecap:butt;stroke-linejoin:miter;stroke-miterlimit:10;stroke-dasharray:none;stroke-opacity:1"
             id="path1178" /></g><g
           id="g1180"
           transform="translate(29.7705,22.68)"><path
             d="m 0,0 c 0,-3.91 -3.17,-7.09 -7.09,-7.09 -3.91,0 -7.08,3.18 -7.08,7.09 0,3.91 3.17,7.09 7.08,7.09 C -3.17,7.09 0,3.91 0,0 Z"
             style="fill:none;stroke:#ed1c24;stroke-width:0.283;stroke-linecap:butt;stroke-linejoin:miter;stroke-miterlimit:10;stroke-dasharray:none;stroke-opacity:1"
             id="path1182" /></g><g
           id="g1184"
           transform="translate(182.8403,22.68)"><path
             d="m 0,0 c 0,-3.91 -3.17,-7.09 -7.09,-7.09 -3.91,0 -7.08,3.18 -7.08,7.09 0,3.91 3.17,7.09 7.08,7.09 C -3.17,7.09 0,3.91 0,0 Z"
             style="fill:none;stroke:#ed1c24;stroke-width:0.283;stroke-linecap:butt;stroke-linejoin:miter;stroke-miterlimit:10;stroke-dasharray:none;stroke-opacity:1"
             id="path1186" /></g><g
           id="g1188"
           transform="translate(192.6558,24.4994)"><path
             d="m 0,0 c 0.07,-0.6 0.1,-1.2 0.1,-1.82 0,-9.39 -7.61,-17.01 -17.01,-17.01 -1.68,0 -3.31,0.25 -4.84,0.71 -0.67,0.19 -1.32,0.43 -1.95,0.71 -4.36,1.56 -8.78,2.98 -13.27,4.25 -17.95,5.08 -36.89,7.8 -56.47,7.8 -19.58,0 -38.52,-2.72 -56.47,-7.8 -4.5,-1.27 -8.94,-2.7 -13.31,-4.27 -0.61,-0.27 -1.25,-0.5 -1.9,-0.69 -1.54,-0.46 -3.17,-0.71 -4.86,-0.71 -9.39,0 -17,7.62 -17,17.01 0,0.62 0.03,1.22 0.1,1.82 v 0.04 c 0.07,0.65 0.18,1.29 0.32,1.91 2.29,13.56 4.04,27.3 5.25,41.2 1.31,15.07 1.98,30.33 1.98,45.74 0,15.41 -0.67,30.66 -1.98,45.73 -1.21,13.91 -2.96,27.65 -5.25,41.22 -0.14,0.62 -0.25,1.25 -0.32,1.9 v 0.04 c -0.07,0.6 -0.1,1.2 -0.1,1.82 0,9.39 7.61,17 17,17 1.69,0 3.32,-0.25 4.86,-0.7 0.6,-0.18 1.19,-0.39 1.76,-0.64 0.01,-0.01 0.02,-0.02 0.03,-0.01 4.42,-1.59 8.91,-3.03 13.46,-4.32 h 81.95 v -8.5 -8.51 h 15.59 15.59 v 17.01 h 11.33 v 3.67 c 0.61,0.2 1.21,0.41 1.81,0.63 0.03,0 0.05,0.01 0.07,0.03 0.58,0.25 1.17,0.46 1.78,0.64 1.53,0.46 3.16,0.7 4.84,0.7 9.4,0 17.01,-7.61 17.01,-17 0,-0.62 -0.03,-1.22 -0.1,-1.82 v -0.04 c -0.07,-0.65 -0.18,-1.28 -0.32,-1.9 -2.29,-13.57 -4.04,-27.31 -5.25,-41.22 -1.31,-15.07 -1.98,-30.32 -1.98,-45.73 0,-15.41 0.67,-30.67 1.98,-45.74 1.21,-13.9 2.96,-27.64 5.25,-41.2 C -0.18,1.33 -0.07,0.69 0,0.04 Z"
             style="fill:none;stroke:#231f20;stroke-width:0.283;stroke-linecap:butt;stroke-linejoin:miter;stroke-miterlimit:10;stroke-dasharray:none;stroke-opacity:1"
             id="path1190" /></g><g
           id="g1192"
           transform="translate(155.916,198.4193)"><path
             d="M 0,0 V 17.01"
             style="fill:none;stroke:#231f20;stroke-width:0.283;stroke-linecap:butt;stroke-linejoin:miter;stroke-miterlimit:10;stroke-dasharray:none;stroke-opacity:1"
             id="path1194" /></g><g
           id="g1196"
           transform="translate(124.7354,198.4227)"><path
             d="m 0,0 h 15.591 15.59 -15.59 z"
             style="fill:none;stroke:#231f20;stroke-width:0.283;stroke-linecap:butt;stroke-linejoin:miter;stroke-miterlimit:10;stroke-dasharray:none;stroke-opacity:1"
             id="path1198" /></g><g
           id="g1200"
           transform="translate(124.7354,206.9266)"><path
             d="M 0,0 V -8.504 0 8.504 Z"
             style="fill:none;stroke:#231f20;stroke-width:0.283;stroke-linecap:butt;stroke-linejoin:miter;stroke-miterlimit:10;stroke-dasharray:none;stroke-opacity:1"
             id="path1202" /></g><g
           id="g1204"
           transform="translate(637.7949,191.3387)"><path
             d="m 0,0 c 0,-3.914 -3.173,-7.087 -7.086,-7.087 -3.914,0 -7.087,3.173 -7.087,7.087 0,3.914 3.173,7.086 7.087,7.086 C -3.173,7.086 0,3.914 0,0 Z"
             style="fill:none;stroke:#ed1c24;stroke-width:0.283;stroke-linecap:butt;stroke-linejoin:miter;stroke-miterlimit:10;stroke-dasharray:none;stroke-opacity:1"
             id="path1206" /></g><g
           id="g1208"
           transform="translate(646.2988,191.3387)"><path
             d="m 0,0 c 0,-8.61 -6.979,-15.591 -15.59,-15.591 -8.61,0 -15.591,6.981 -15.591,15.591 0,8.61 6.981,15.59 15.591,15.59 C -6.979,15.59 0,8.61 0,0 Z"
             style="fill:none;stroke:#231f20;stroke-width:0.283;stroke-linecap:butt;stroke-linejoin:miter;stroke-miterlimit:10;stroke-dasharray:none;stroke-opacity:1"
             id="path1210" /></g></g></g><text
       transform="matrix(1,0,0,-1,617.9526,158.7397)"
       style="font-variant:normal;font-weight:normal;font-stretch:normal;font-size:8.5039px;font-family:'Myriad Pro';-inkscape-font-specification:MyriadPro-Regular;writing-mode:lr-tb;fill:#6d6f71;fill-opacity:1;fill-rule:nonzero;stroke:none"
       id="text1214"><tspan
         x="0 2.7637675 7.0242214 10.391766 13.206556 15.009383 19.678024 22.458799 24.261627 30.486481 34.585361 37.952908 42.672569 46.933025 49.713799"
         y="0"
         sodipodi:role="line"
         id="tspan1212">test or washers</tspan></text><g
       id="g1216"><g
         id="g1218"
         clip-path="url(#clipPath1222)"><g
           id="g1224"
           transform="translate(649.1299,240.9232)"><path
             d="M 0,0 V 19.86"
             style="fill:none;stroke:#231f20;stroke-width:0.283;stroke-linecap:butt;stroke-linejoin:miter;stroke-miterlimit:10;stroke-dasharray:none;stroke-opacity:1"
             id="path1226" /></g><g
           id="g1228"
           transform="translate(685.9805,260.7835)"><path
             d="M 0,0 H -36.851"
             style="fill:none;stroke:#231f20;stroke-width:0.283;stroke-linecap:butt;stroke-linejoin:miter;stroke-miterlimit:10;stroke-dasharray:none;stroke-opacity:1"
             id="path1230" /></g><g
           id="g1232"
           transform="translate(685.9805,245.7332)"><path
             d="M 0,0 V 15.05"
             style="fill:none;stroke:#231f20;stroke-width:0.283;stroke-linecap:butt;stroke-linejoin:miter;stroke-miterlimit:10;stroke-dasharray:none;stroke-opacity:1"
             id="path1234" /></g></g></g></g></svg>
